<svg width="200" height="200" viewBox="0 0 200 200" fill="none" xmlns="http://www.w3.org/2000/svg">
    <path
        d="M59.2508 59.3145C69.9273 48.5729 83.3739 43.0356 99.5903 42.7026C115.652 43.0434 129.02 48.5807 139.697 59.3145C150.373 70.0483 155.96 83.4308 156.457 99.4618C155.952 115.477 150.366 128.86 139.697 139.609C129.028 150.359 115.659 155.907 99.5903 156.256C83.3661 155.923 69.9196 150.389 59.2508 139.656C48.5821 128.922 42.9956 115.539 42.4912 99.5083C42.98 83.4463 48.5666 70.0483 59.2508 59.3145Z"
        fill="white" />
    <path
        d="M99.5899 161.17C82.0467 160.674 67.4402 154.642 55.7705 143.071C44.1009 131.501 38.0993 116.965 37.7656 99.4622C38.0993 82.1068 44.1009 67.6092 55.7705 55.9693C67.4402 44.3293 82.0467 38.2615 99.5899 37.7659C116.978 38.2538 131.503 44.3254 143.165 55.9809C154.827 67.6363 160.828 82.1339 161.17 99.4738C160.836 116.984 154.834 131.52 143.165 143.083C131.495 154.645 116.97 160.674 99.5899 161.17ZM99.5899 49.3942C85.352 49.8898 73.5194 54.8076 64.0922 64.1474C54.6649 73.4872 49.7806 85.2588 49.4392 99.4622C49.7651 113.666 54.6494 125.476 64.0922 134.893C73.535 144.31 85.3675 149.186 99.5899 149.519C113.657 149.186 125.412 144.31 134.855 134.893C144.298 125.476 149.178 113.666 149.496 99.4622C149.17 85.2511 144.29 73.4795 134.855 64.1474C125.42 54.8153 113.665 49.8937 99.5899 49.3826V49.3942Z"
        fill="#FFBC1F" />
    <path
        d="M99.5902 136.635C88.9991 136.295 80.2275 132.701 73.2754 125.855C66.3232 119.009 62.6803 110.211 62.3467 99.462C62.3467 89.0535 65.7839 80.3797 72.6585 73.4406C79.533 66.5016 88.4289 62.7842 99.3459 62.2886C109.937 62.4512 118.751 66.0447 125.789 73.0689C132.826 80.0931 136.426 88.8908 136.589 99.462C136.426 110.033 132.826 118.788 125.789 125.727C118.816 132.636 109.414 136.55 99.5902 136.635ZM100.091 74.9276H99.5902C92.3045 75.2528 86.3455 77.6885 81.7133 82.2345C79.4225 84.4818 77.6392 87.1919 76.4831 90.1831C75.3269 93.1742 74.8245 96.3775 75.0095 99.5782C74.9866 102.805 75.6125 106.003 76.8499 108.984C78.0874 111.966 79.9112 114.669 82.2137 116.934C85.066 119.795 88.5792 121.913 92.4441 123.1C96.309 124.288 100.407 124.51 104.378 123.745C108.349 122.981 112.071 121.254 115.216 118.717C118.361 116.179 120.833 112.909 122.414 109.194C123.995 105.479 124.638 101.433 124.285 97.4125C123.931 93.3916 122.593 89.519 120.388 86.1354C118.183 82.7518 115.179 79.9611 111.64 78.0087C108.1 76.0564 104.134 75.0023 100.091 74.9392V74.9276Z"
        fill="#FFBC1F" />
    <path
        d="M92.2699 92.3644C94.215 90.5278 96.7909 89.5044 99.4685 89.5044C102.146 89.5044 104.722 90.5278 106.667 92.3644C108.504 94.2582 109.532 96.7911 109.532 99.4273C109.532 102.064 108.504 104.597 106.667 106.49C104.722 108.327 102.146 109.35 99.4685 109.35C96.7909 109.35 94.215 108.327 92.2699 106.49C90.4406 104.592 89.4189 102.061 89.4189 99.4273C89.4189 96.7937 90.4406 94.2624 92.2699 92.3644Z"
        fill="#FFBC1F" />
    <path
        d="M100.509 100.938C100.148 101.297 99.6594 101.499 99.1496 101.499C98.6398 101.499 98.151 101.297 97.7905 100.938C97.43 100.578 97.2275 100.091 97.2275 99.5825C97.2275 99.0742 97.43 98.5866 97.7905 98.2272L105.448 90.603L107.912 93.3136L100.509 100.938Z"
        fill="#818698" />
    <path
        d="M161.655 55.6199C162.48 60.2336 154.665 63.6939 138.208 66.0008L114.274 92.8181C113.75 93.3673 113.117 93.8033 112.417 94.099C111.717 94.3946 110.963 94.5436 110.202 94.5367C108.63 94.5388 107.121 93.921 106.003 92.8181C105.421 92.3133 104.954 91.6895 104.634 90.9889C104.315 90.2884 104.151 89.5275 104.152 88.758C104.17 87.1601 104.785 85.6261 105.876 84.4557L132.782 60.8334C135.096 44.4316 138.566 36.596 143.193 37.3265C147.82 38.057 148.229 43.8242 144.419 54.628C155.093 50.6986 160.838 51.0293 161.655 55.6199Z"
        fill="#1C58D9" />
</svg>