<svg width="323" height="225" viewBox="0 0 323 225" fill="none" xmlns="http://www.w3.org/2000/svg">
<ellipse cx="140.841" cy="137.622" rx="85.9894" ry="85.8304" fill="white"/>
<path d="M140.841 224.042C188.657 224.042 227.42 185.352 227.42 137.622C227.42 89.8929 188.657 51.2024 140.841 51.2024C93.0263 51.2024 54.2626 89.8929 54.2626 137.622C54.2626 185.352 93.0263 224.042 140.841 224.042Z" stroke="#3F4350" stroke-opacity="0.16" stroke-width="1.17895"/>
<ellipse cx="140.841" cy="137.622" rx="85.9894" ry="85.8304" fill="#3F4350" fill-opacity="0.16"/>
<mask id="mask0_2352_4888" style="mask-type:alpha" maskUnits="userSpaceOnUse" x="53" y="50" width="176" height="175">
<ellipse cx="140.841" cy="137.622" rx="85.9894" ry="85.8304" fill="white"/>
<path d="M140.841 224.042C188.657 224.042 227.42 185.352 227.42 137.622C227.42 89.8929 188.657 51.2024 140.841 51.2024C93.0263 51.2024 54.2626 89.8929 54.2626 137.622C54.2626 185.352 93.0263 224.042 140.841 224.042Z" stroke="#3F4350" stroke-opacity="0.16" stroke-width="1.17895"/>
</mask>
<g mask="url(#mask0_2352_4888)">
<path d="M94.0451 199.288C93.937 209.442 94.4772 217.868 95.6294 224.842C100.719 226.894 105.964 228.647 111.353 230.051C111.473 230.087 111.581 230.111 111.701 230.147C112.253 230.291 112.805 230.435 113.369 230.567C116.838 231.443 120.379 232.175 123.968 232.752C131.085 233.928 138.383 234.528 145.825 234.528C168.33 234.528 189.526 229.007 208.155 219.225C214 216.176 219.581 212.707 224.874 208.83C225.99 193.755 229.603 170.71 229.843 154.194C230.828 87.6872 231.704 81.3738 184.113 79.0213C179.72 78.8052 174.907 78.6132 169.65 78.4212C163 78.1811 156.927 78.0251 151.382 77.9891C148.465 77.9651 145.693 77.9891 143.064 78.0491C121.843 78.4932 109.745 81.5539 102.867 90.2438C95.9895 98.9457 94.3571 113.253 94.0571 136.214C93.913 147.004 94.0571 159.703 94.1051 174.647C94.1171 178.163 94.1171 181.8 94.1051 185.545C94.1051 189.95 94.0931 194.523 94.0451 199.288Z" fill="#1C58D9"/>
<path d="M94.0447 199.288C93.9367 209.442 94.4768 217.868 95.6291 224.842C100.826 226.942 106.191 228.719 111.701 230.147C111.701 167.949 110.356 145.552 110.86 139.347C109.168 138.747 104.871 137.738 94.0568 136.214C93.9127 147.005 94.0568 159.703 94.1048 174.647C94.1168 178.163 94.1168 181.8 94.1048 185.545C94.1048 189.95 94.0928 194.523 94.0447 199.288Z" fill="#A37200"/>
<path d="M100.06 161.845L125.386 163.14C128.088 163.283 129.663 160.147 127.929 158.075L102.834 128.134C102.111 127.27 101.056 126.752 99.9296 126.695L78.5472 125.601C75.022 125.414 72.956 129.515 75.2242 132.22L100.06 161.845Z" fill="#3F4350"/>
<path d="M196.691 156.979C200.208 151.193 221.321 155.298 221.585 155.346C222.437 155.886 228.667 157.387 229.759 157.699C229.543 161.384 229.351 168.729 228.186 176.675C226.122 185.785 223.253 196.059 219.328 207.642C218.572 209.85 217.768 211.927 216.904 213.931C212.559 215.936 208.382 218.888 204.073 220.437C202.033 221.169 192.586 163.724 196.691 156.991V156.979Z" fill="black" fill-opacity="0.5"/>
<path d="M91.3038 153.292C92.9122 156.089 95.5408 159.474 99.5977 162.426C116.187 174.461 141.025 225.295 165.557 225.295C188.062 225.295 203.781 209.585 222.409 199.803C224.558 195.938 226.478 191.593 228.134 186.732C235.012 166.459 238.661 150.112 240.413 137.197C234.46 135.768 209.206 127.414 204.429 125.05C187.697 206.26 172.838 205.372 145.94 182.531C115.909 157.025 117.59 158.861 103.09 153.292C101.842 152.812 100.678 152.344 99.5977 151.9C88.2191 147.195 86.4907 144.89 91.3038 153.292Z" fill="#CC8F00"/>
<path d="M189.755 145.588L190.607 143.356L186.574 141.795L188.891 128.328L186.526 127.92L183.885 143.332L189.755 145.588Z" fill="black" fill-opacity="0.5"/>
<path d="M109.661 117.958H112.061V139.347H109.661V117.958Z" fill="black" fill-opacity="0.5"/>
<path d="M141.604 105.247C141.604 100.038 145.827 95.8151 151.036 95.8151H255.178C260.387 95.8151 264.61 100.038 264.61 105.247V153.713C264.61 158.922 260.387 163.145 255.178 163.145H141.604V105.247Z" fill="black" fill-opacity="0.32"/>
</g>
<path d="M169.784 67.7475C168.182 65.7122 166.464 63.4893 164.761 61.1798C161.816 57.1669 158.915 52.9087 156.663 48.9824C155.58 47.0915 155.725 44.2912 156.23 41.3032C152.997 33.9992 150.11 26.5509 147.786 18.9005C138.908 15.797 127.62 18.2076 124.214 18.5396C119.32 19.0015 114.903 19.0593 113.792 22.7546C112.233 27.9944 115.423 38.2863 117.17 48.4483L129.843 63.2872L139.774 82.0235L144.163 87.5808L181.823 83.1638C181.823 83.1638 174.504 73.6946 169.784 67.7331V67.7475Z" fill="#CC8F00"/>
<path d="M115.914 32.7289C111.887 43.4106 109.346 51.1043 109.346 51.1043C109.794 54.8717 120.533 53.3416 120.533 53.3416L115.914 32.7289Z" fill="#CC8F00"/>
<path d="M144.711 1.43443C151.164 3.65737 156.721 8.2043 160.575 13.8338C165.44 20.9213 167.662 29.7842 166.753 38.3295C166.32 42.4001 165.05 46.6151 161.975 49.3143C158.612 52.2735 153.329 52.7642 149.417 50.5702C145.505 48.3761 143.181 43.7137 143.672 39.2534C144.004 36.1932 145.534 33.2774 145.332 30.2028C145.115 27.1282 141.709 24.0103 139.168 25.7425C137.09 27.1571 137.191 30.7657 134.867 31.7329C131.908 32.9743 129.887 28.7449 127.433 26.6663C123.608 23.4329 117.892 25.6126 113.056 26.9405C106.301 28.8026 98.4914 28.4129 93.0062 24.0536C87.521 19.6943 85.6589 10.6726 90.3791 5.49058C93.3526 2.22833 98.145 1.1313 102.533 1.60764C110.429 2.45929 113.98 6.76083 121.645 3.45528C129.136 0.207476 136.714 -1.3226 144.697 1.41999L144.711 1.43443Z" fill="#4A2407"/>
<path d="M137.061 77.794C146.415 77.5775 157.241 77.7796 169.813 78.2415C175.847 78.458 181.376 78.6745 186.457 78.9199C186.457 99.7781 130.219 117.85 137.075 77.794H137.061Z" fill="#CC8F00"/>
<path d="M113.642 30.1191C114.908 39.5394 118.426 54.7798 124.561 66.5243C125.816 68.9277 129.488 67.7087 133.076 66.525C146.011 62.2786 113.642 30.1191 113.642 30.1191Z" fill="#CC8F00"/>
<path d="M121.676 59.3693C123.997 59.2378 126.714 57.9051 128.424 56.4539C129.3 56.0574 128.763 54.6579 127.873 55.0498C125.419 56.9711 123.359 57.8462 120.991 57.9051L121.676 59.3693Z" fill="#6F370B"/>
<ellipse cx="2.16521" cy="1.44347" rx="2.16521" ry="1.44347" transform="matrix(-0.936576 0.350465 0.350465 0.936576 122.748 35.5881)" fill="#6F370B"/>
<path d="M132.461 66.7696C135.03 65.8747 137.383 64.0126 139.505 62.3237C140.472 61.5587 141.021 62.8145 140.53 63.926C140.155 64.7921 138.639 65.9468 136.806 66.4953C135.637 66.8418 130.714 67.3614 132.446 66.7552L132.461 66.7696Z" fill="#A37200"/>
<path d="M128.655 98.7726C128.655 93.5637 132.878 89.3411 138.087 89.3411H313.443C318.652 89.3411 322.875 93.5637 322.875 98.7726V144.649C322.875 149.858 318.652 154.081 313.443 154.081H128.655V98.7726Z" fill="white"/>
<path d="M129.245 98.7726C129.245 93.8893 133.203 89.9305 138.087 89.9305H313.443C318.327 89.9305 322.285 93.8893 322.285 98.7726V144.649C322.285 149.533 318.327 153.491 313.443 153.491H129.245V98.7726Z" stroke="#3F4350" stroke-opacity="0.16" stroke-width="1.17895"/>
<ellipse cx="166.204" cy="121.711" rx="22.0116" ry="22.0116" fill="#30916B"/>
<path d="M159.13 119.88C160.074 121.683 161.283 123.326 162.76 124.809C164.277 126.252 165.959 127.434 167.804 128.356L170.695 125.531C171.064 125.17 171.516 125.07 172.049 125.23C173.525 125.711 175.083 125.952 176.724 125.952C177.093 125.952 177.401 126.072 177.647 126.312C177.893 126.553 178.016 126.853 178.016 127.214V131.723C178.016 132.084 177.893 132.384 177.647 132.625C177.401 132.865 177.093 132.985 176.724 132.985C173.771 132.985 170.921 132.444 168.173 131.362C165.425 130.24 163.006 128.657 160.914 126.613C158.823 124.569 157.203 122.204 156.054 119.519C154.947 116.834 154.394 114.048 154.394 111.163C154.394 110.802 154.517 110.501 154.763 110.261C155.009 110.02 155.316 109.9 155.685 109.9H160.299C160.668 109.9 160.976 110.02 161.222 110.261C161.468 110.501 161.591 110.802 161.591 111.163C161.591 112.766 161.837 114.289 162.329 115.731C162.493 116.252 162.391 116.693 162.022 117.054L159.13 119.88Z" fill="white"/>
<path d="M190.804 108.712H196.631V110.59H188.757V99.2509H190.804V108.712ZM201.721 109.003C202.118 109.003 202.527 108.922 202.946 108.761C203.365 108.6 203.692 108.395 203.929 108.148L205.202 109.47C204.837 109.857 204.324 110.174 203.663 110.421C203.007 110.668 202.365 110.792 201.737 110.792C200.925 110.792 200.181 110.604 199.504 110.228C198.827 109.846 198.287 109.311 197.884 108.624C197.482 107.931 197.28 107.157 197.28 106.303C197.28 105.035 197.696 103.979 198.529 103.135C199.367 102.287 200.396 101.862 201.616 101.862C202.927 101.862 203.95 102.324 204.686 103.248C205.428 104.167 205.799 105.422 205.799 107.012H199.359C199.488 107.608 199.762 108.089 200.181 108.455C200.606 108.82 201.119 109.003 201.721 109.003ZM201.705 103.643C201.146 103.643 200.654 103.81 200.23 104.143C199.811 104.471 199.526 104.914 199.375 105.473H203.864C203.741 104.914 203.496 104.471 203.131 104.143C202.766 103.81 202.29 103.643 201.705 103.643ZM213.443 110.187C212.739 110.59 211.982 110.792 211.171 110.792C210.359 110.792 209.602 110.59 208.898 110.187C208.194 109.779 207.635 109.231 207.222 108.543C206.808 107.855 206.601 107.114 206.601 106.319C206.601 105.524 206.808 104.785 207.222 104.103C207.635 103.415 208.194 102.869 208.898 102.467C209.602 102.064 210.359 101.862 211.171 101.862C211.982 101.862 212.739 102.064 213.443 102.467C214.147 102.869 214.706 103.415 215.12 104.103C215.539 104.785 215.748 105.524 215.748 106.319C215.748 107.114 215.539 107.855 215.12 108.543C214.706 109.231 214.147 109.779 213.443 110.187ZM211.171 109.075C211.874 109.075 212.482 108.804 212.992 108.261C213.508 107.713 213.766 107.066 213.766 106.319C213.766 105.577 213.508 104.935 212.992 104.393C212.482 103.85 211.874 103.579 211.171 103.579C210.461 103.579 209.849 103.85 209.333 104.393C208.823 104.935 208.567 105.577 208.567 106.319C208.567 107.071 208.823 107.718 209.333 108.261C209.849 108.804 210.461 109.075 211.171 109.075ZM221.652 101.862C222.582 101.862 223.342 102.171 223.933 102.789C224.524 103.401 224.819 104.191 224.819 105.158V110.59H222.869V105.553C222.869 104.978 222.7 104.506 222.361 104.135C222.028 103.764 221.598 103.579 221.072 103.579C220.545 103.579 220.086 103.735 219.694 104.046C219.301 104.352 219.073 104.734 219.009 105.191V110.59H216.994V102.056H219.009V103.192C219.277 102.789 219.648 102.467 220.121 102.225C220.594 101.983 221.104 101.862 221.652 101.862ZM230.224 101.862C231.346 101.862 232.238 102.19 232.899 102.845C233.56 103.501 233.89 104.371 233.89 105.456V110.59H231.924V109.567C231.618 109.954 231.22 110.254 230.731 110.469C230.242 110.684 229.743 110.792 229.232 110.792C228.313 110.792 227.553 110.542 226.951 110.042C226.35 109.543 226.049 108.884 226.049 108.068C226.049 107.24 226.385 106.561 227.056 106.029C227.728 105.491 228.553 105.223 229.53 105.223C230.32 105.223 231.118 105.379 231.924 105.69V105.456C231.924 105.199 231.886 104.957 231.811 104.731C231.736 104.506 231.62 104.299 231.465 104.111C231.309 103.923 231.091 103.775 230.812 103.667C230.532 103.56 230.205 103.506 229.829 103.506C229.146 103.506 228.375 103.721 227.516 104.151L226.823 102.749C228.021 102.158 229.154 101.862 230.224 101.862ZM229.675 109.317C230.197 109.317 230.672 109.193 231.102 108.946C231.537 108.694 231.811 108.35 231.924 107.915V106.956C231.29 106.735 230.592 106.625 229.829 106.625C229.318 106.625 228.888 106.754 228.539 107.012C228.19 107.27 228.015 107.598 228.015 107.995C228.015 108.393 228.171 108.712 228.483 108.954C228.794 109.196 229.192 109.317 229.675 109.317ZM237.634 103.708C237.914 103.133 238.319 102.681 238.851 102.354C239.383 102.026 239.996 101.862 240.689 101.862V103.579C239.775 103.579 239.037 103.826 238.473 104.32C237.914 104.814 237.634 105.467 237.634 106.279V110.59H235.62V102.056H237.634V103.708ZM248.172 99.0494H250.187V110.59H248.172V109.268C247.828 109.757 247.404 110.134 246.899 110.397C246.394 110.66 245.832 110.792 245.215 110.792C244.081 110.792 243.146 110.375 242.41 109.543C241.674 108.704 241.306 107.63 241.306 106.319C241.306 105.019 241.674 103.952 242.41 103.119C243.146 102.281 244.081 101.862 245.215 101.862C246.472 101.862 247.458 102.367 248.172 103.377V99.0494ZM245.763 109.075C246.472 109.075 247.049 108.817 247.495 108.301C247.947 107.786 248.172 107.125 248.172 106.319C248.172 105.518 247.947 104.863 247.495 104.352C247.049 103.837 246.472 103.579 245.763 103.579C245.043 103.579 244.452 103.837 243.99 104.352C243.533 104.863 243.305 105.518 243.305 106.319C243.305 107.119 243.536 107.78 243.998 108.301C244.46 108.817 245.048 109.075 245.763 109.075ZM191.94 126.792C191.279 126.792 190.619 126.679 189.958 126.453C189.302 126.228 188.722 125.911 188.217 125.502L189.12 124.1C190.033 124.761 190.984 125.091 191.973 125.091C192.381 125.091 192.711 125.011 192.964 124.849C193.216 124.688 193.343 124.476 193.343 124.213C193.343 124.105 193.324 124.009 193.286 123.923C193.254 123.831 193.195 123.751 193.109 123.681C193.023 123.611 192.94 123.552 192.859 123.504C192.778 123.45 192.658 123.396 192.496 123.342C192.341 123.283 192.206 123.238 192.093 123.205C191.986 123.173 191.83 123.13 191.626 123.076C191.121 122.947 190.699 122.818 190.361 122.69C190.028 122.561 189.719 122.399 189.434 122.206C189.149 122.013 188.94 121.782 188.805 121.513C188.671 121.239 188.601 120.917 188.596 120.546C188.596 119.745 188.894 119.098 189.49 118.604C190.087 118.109 190.86 117.862 191.811 117.862C192.961 117.862 194.052 118.203 195.083 118.886L194.237 120.352C193.421 119.837 192.612 119.579 191.811 119.579C191.446 119.579 191.145 119.649 190.909 119.788C190.672 119.923 190.554 120.105 190.554 120.336C190.554 120.594 190.667 120.79 190.893 120.925C191.124 121.054 191.594 121.22 192.303 121.424C192.55 121.494 192.757 121.556 192.924 121.61C193.09 121.658 193.286 121.728 193.512 121.819C193.743 121.905 193.934 121.994 194.084 122.085C194.24 122.171 194.398 122.284 194.56 122.424C194.726 122.558 194.858 122.703 194.954 122.859C195.051 123.015 195.132 123.2 195.196 123.415C195.261 123.624 195.293 123.853 195.293 124.1C195.293 124.917 194.984 125.569 194.366 126.058C193.754 126.547 192.945 126.792 191.94 126.792ZM200.81 124.761L201.382 126.115C201.14 126.324 200.858 126.488 200.536 126.606C200.214 126.73 199.891 126.792 199.569 126.792C198.86 126.792 198.279 126.561 197.828 126.099C197.382 125.637 197.159 125.046 197.159 124.326V119.724H195.918V118.056H197.159V115.71H199.126V118.056H201.052V119.724H199.126V124.084C199.126 124.374 199.203 124.613 199.359 124.801C199.52 124.984 199.722 125.075 199.964 125.075C200.318 125.075 200.6 124.97 200.81 124.761ZM206.166 117.862C207.289 117.862 208.181 118.19 208.841 118.845C209.502 119.501 209.833 120.371 209.833 121.456V126.59H207.866V125.567C207.56 125.954 207.162 126.254 206.674 126.469C206.185 126.684 205.685 126.792 205.175 126.792C204.256 126.792 203.496 126.542 202.894 126.042C202.292 125.543 201.991 124.884 201.991 124.068C201.991 123.24 202.327 122.561 202.999 122.029C203.67 121.491 204.495 121.223 205.473 121.223C206.263 121.223 207.06 121.379 207.866 121.69V121.456C207.866 121.199 207.829 120.957 207.753 120.731C207.678 120.506 207.563 120.299 207.407 120.111C207.251 119.923 207.034 119.775 206.754 119.667C206.475 119.56 206.147 119.506 205.771 119.506C205.089 119.506 204.318 119.721 203.458 120.151L202.765 118.749C203.963 118.158 205.097 117.862 206.166 117.862ZM205.618 125.317C206.139 125.317 206.614 125.193 207.044 124.946C207.479 124.694 207.753 124.35 207.866 123.915V122.956C207.232 122.735 206.534 122.625 205.771 122.625C205.26 122.625 204.831 122.754 204.481 123.012C204.132 123.27 203.958 123.598 203.958 123.995C203.958 124.393 204.113 124.712 204.425 124.954C204.737 125.196 205.134 125.317 205.618 125.317ZM213.577 119.708C213.856 119.133 214.262 118.681 214.794 118.354C215.326 118.026 215.938 117.862 216.631 117.862V119.579C215.718 119.579 214.979 119.826 214.415 120.32C213.856 120.814 213.577 121.467 213.577 122.279V126.59H211.562V118.056H213.577V119.708ZM221.89 124.761L222.462 126.115C222.221 126.324 221.939 126.488 221.616 126.606C221.294 126.73 220.972 126.792 220.649 126.792C219.94 126.792 219.36 126.561 218.908 126.099C218.462 125.637 218.239 125.046 218.239 124.326V119.724H216.998V118.056H218.239V115.71H220.206V118.056H222.132V119.724H220.206V124.084C220.206 124.374 220.284 124.613 220.44 124.801C220.601 124.984 220.802 125.075 221.044 125.075C221.399 125.075 221.681 124.97 221.89 124.761ZM227.512 125.003C227.91 125.003 228.318 124.922 228.737 124.761C229.156 124.6 229.484 124.395 229.72 124.148L230.994 125.47C230.628 125.857 230.115 126.174 229.454 126.421C228.799 126.668 228.157 126.792 227.528 126.792C226.717 126.792 225.973 126.604 225.296 126.228C224.619 125.846 224.079 125.311 223.676 124.624C223.273 123.931 223.071 123.157 223.071 122.303C223.071 121.035 223.488 119.979 224.321 119.135C225.159 118.287 226.188 117.862 227.407 117.862C228.718 117.862 229.742 118.324 230.478 119.248C231.219 120.167 231.59 121.422 231.59 123.012H225.151C225.28 123.608 225.554 124.089 225.973 124.455C226.397 124.82 226.91 125.003 227.512 125.003ZM227.496 119.643C226.937 119.643 226.446 119.81 226.021 120.143C225.602 120.471 225.317 120.914 225.167 121.473H229.656C229.532 120.914 229.288 120.471 228.922 120.143C228.557 119.81 228.082 119.643 227.496 119.643ZM239.323 115.049H241.338V126.59H239.323V125.268C238.979 125.757 238.555 126.134 238.05 126.397C237.545 126.66 236.983 126.792 236.366 126.792C235.232 126.792 234.297 126.375 233.561 125.543C232.825 124.704 232.457 123.63 232.457 122.319C232.457 121.019 232.825 119.952 233.561 119.119C234.297 118.281 235.232 117.862 236.366 117.862C237.623 117.862 238.609 118.367 239.323 119.377V115.049ZM236.914 125.075C237.623 125.075 238.2 124.817 238.646 124.301C239.098 123.786 239.323 123.125 239.323 122.319C239.323 121.518 239.098 120.863 238.646 120.352C238.2 119.837 237.623 119.579 236.914 119.579C236.194 119.579 235.603 119.837 235.141 120.352C234.684 120.863 234.456 121.518 234.456 122.319C234.456 123.119 234.687 123.78 235.149 124.301C235.611 124.817 236.199 125.075 236.914 125.075ZM251.002 117.862C252.125 117.862 253.017 118.19 253.678 118.845C254.339 119.501 254.669 120.371 254.669 121.456V126.59H252.703V125.567C252.396 125.954 251.999 126.254 251.51 126.469C251.021 126.684 250.521 126.792 250.011 126.792C249.092 126.792 248.332 126.542 247.73 126.042C247.128 125.543 246.827 124.884 246.827 124.068C246.827 123.24 247.163 122.561 247.835 122.029C248.506 121.491 249.331 121.223 250.309 121.223C251.099 121.223 251.897 121.379 252.703 121.69V121.456C252.703 121.199 252.665 120.957 252.59 120.731C252.515 120.506 252.399 120.299 252.243 120.111C252.087 119.923 251.87 119.775 251.59 119.667C251.311 119.56 250.983 119.506 250.607 119.506C249.925 119.506 249.154 119.721 248.294 120.151L247.601 118.749C248.799 118.158 249.933 117.862 251.002 117.862ZM250.454 125.317C250.975 125.317 251.451 125.193 251.881 124.946C252.316 124.694 252.59 124.35 252.703 123.915V122.956C252.069 122.735 251.37 122.625 250.607 122.625C250.097 122.625 249.667 122.754 249.318 123.012C248.968 123.27 248.794 123.598 248.794 123.995C248.794 124.393 248.95 124.712 249.261 124.954C249.573 125.196 249.971 125.317 250.454 125.317ZM264.639 126.792C263.833 126.792 263.078 126.59 262.375 126.187C261.676 125.779 261.12 125.231 260.706 124.543C260.293 123.855 260.086 123.114 260.086 122.319C260.086 121.722 260.209 121.15 260.456 120.602C260.704 120.054 261.031 119.581 261.44 119.184C261.853 118.781 262.342 118.461 262.906 118.225C263.471 117.983 264.059 117.862 264.671 117.862C265.3 117.862 265.894 117.986 266.453 118.233C267.011 118.48 267.498 118.818 267.911 119.248L266.557 120.433C266.321 120.175 266.033 119.968 265.695 119.812C265.356 119.657 265.01 119.579 264.655 119.579C263.957 119.579 263.352 119.85 262.842 120.393C262.337 120.935 262.084 121.577 262.084 122.319C262.084 123.071 262.337 123.718 262.842 124.261C263.352 124.804 263.957 125.075 264.655 125.075C265.026 125.075 265.383 124.994 265.727 124.833C266.071 124.672 266.364 124.455 266.606 124.181L267.96 125.349C267.057 126.311 265.95 126.792 264.639 126.792ZM272.759 117.862C273.882 117.862 274.774 118.19 275.435 118.845C276.096 119.501 276.426 120.371 276.426 121.456V126.59H274.46V125.567C274.154 125.954 273.756 126.254 273.267 126.469C272.778 126.684 272.279 126.792 271.768 126.792C270.849 126.792 270.089 126.542 269.487 126.042C268.886 125.543 268.585 124.884 268.585 124.068C268.585 123.24 268.921 122.561 269.592 122.029C270.264 121.491 271.088 121.223 272.066 121.223C272.856 121.223 273.654 121.379 274.46 121.69V121.456C274.46 121.199 274.422 120.957 274.347 120.731C274.272 120.506 274.156 120.299 274 120.111C273.845 119.923 273.627 119.775 273.348 119.667C273.068 119.56 272.741 119.506 272.364 119.506C271.682 119.506 270.911 119.721 270.051 120.151L269.358 118.749C270.557 118.158 271.69 117.862 272.759 117.862ZM272.211 125.317C272.733 125.317 273.208 125.193 273.638 124.946C274.073 124.694 274.347 124.35 274.46 123.915V122.956C273.826 122.735 273.127 122.625 272.364 122.625C271.854 122.625 271.424 122.754 271.075 123.012C270.726 123.27 270.551 123.598 270.551 123.995C270.551 124.393 270.707 124.712 271.019 124.954C271.33 125.196 271.728 125.317 272.211 125.317ZM278.107 126.59V115.049H280.122V126.59H278.107ZM281.851 126.59V115.049H283.866V126.59H281.851Z" fill="#3F4350"/>
<g opacity="0.8">
<path d="M30.5421 63.9063C30.6279 65.3636 30.2589 66.8112 29.4878 68.0413C28.9953 68.7992 28.3586 69.4485 27.6155 69.9508L19.1362 76.9731C18.9828 77.097 18.7929 77.1644 18.5972 77.1644C18.4015 77.1644 18.2115 77.097 18.0581 76.9731L9.53356 69.9508C8.75995 69.4502 8.10431 68.7816 7.61349 67.9927C6.7847 66.6838 6.42102 65.1247 6.58311 63.5755C6.76444 61.918 7.53336 60.3851 8.74525 59.2653C9.95714 58.1454 11.5285 57.5157 13.1638 57.4945C14.9288 57.4945 16.4982 58.1634 17.8721 59.5012C17.9608 59.5928 18.0665 59.6655 18.183 59.7151C18.2995 59.7647 18.4244 59.7903 18.5506 59.7903C18.6769 59.7903 18.8019 59.7647 18.9183 59.7151C19.0348 59.6655 19.1405 59.5928 19.2292 59.5012C20.6603 58.1002 22.3156 57.4386 24.1951 57.5164C26.0746 57.5942 27.683 58.3985 29.0203 59.9293C29.9348 61.053 30.4685 62.448 30.5421 63.9063Z" fill="#FFBC1F"/>
<path d="M18.0581 76.9706C18.2115 77.0945 18.4015 77.1619 18.5972 77.1619C18.7928 77.1619 18.9828 77.0945 19.1362 76.9706L27.6154 69.9483C28.3586 69.446 28.9953 68.7967 29.4878 68.0389C30.2589 66.8088 30.6279 65.3611 30.542 63.9038C30.8903 67.5913 18.0581 76.9706 18.0581 76.9706Z" fill="#CC8F00"/>
<path d="M10.0392 66.2973C10.0601 65.2205 10.2896 64.1585 10.7145 63.1725C11.1394 62.1864 11.7513 61.2959 12.515 60.552C12.5581 60.5099 12.5869 60.4549 12.5971 60.395C12.6073 60.3351 12.5985 60.2734 12.5718 60.219C12.5451 60.1646 12.502 60.1203 12.4489 60.0927C12.3957 60.0651 12.3353 60.0555 12.2765 60.0655C10.5258 60.4206 7.14362 61.7219 9.51209 66.4092C9.53991 66.4648 9.58486 66.5095 9.64005 66.5365C9.69525 66.5634 9.75759 66.5712 9.81752 66.5584C9.87744 66.5457 9.9316 66.5133 9.97165 66.4661C10.0117 66.4189 10.0355 66.3596 10.0392 66.2973Z" fill="#FFD470"/>
</g>
<path d="M44.457 38.0047C43.9544 37.3275 43.5432 37.2033 42.8054 37.4494C42.5153 37.6954 42.1201 37.8128 41.8917 38.1266L41.8026 38.2123C41.6473 38.4855 41.3686 38.6638 41.2384 38.9618C41.0099 39.4832 40.5896 39.639 40.0277 39.727C39.1551 39.8489 38.3419 40.1672 37.8073 40.9391C37.7571 40.9933 37.7388 41.0723 37.6703 41.1107C37.7251 41.0475 37.7662 40.973 37.8165 40.9075C38.1405 40.4337 38.5649 40.0353 39.0604 39.7398C39.5558 39.4444 40.1104 39.259 40.6856 39.1965C41.0008 39.1536 41.3069 39.0882 41.2955 38.6683C41.1698 38.5622 41.2133 38.4155 41.1973 38.2823C40.9688 36.2643 41.1379 34.2395 41.1127 32.217C41.1127 31.612 40.9688 31.0883 40.3247 30.84C39.7376 30.8197 39.468 31.1764 39.3333 31.6752C39.3031 31.787 39.2817 31.901 39.2693 32.0161C39.2964 31.6709 39.281 31.3238 39.2236 30.9822C39.0614 30.7994 39.146 30.5714 39.1117 30.3637C39.0157 29.7881 38.7279 29.436 38.0997 29.4382C37.387 29.6211 37.186 30.1741 37.1632 30.7926C37.1335 31.603 37.0649 32.4088 37.0535 33.217C37.033 34.4494 36.9599 35.7 37.5538 36.8738C37.3505 36.7812 36.9325 37.2575 36.9667 36.6774C37.0741 34.9618 36.9507 33.244 37.0809 31.5285C37.1478 31.0755 37.0679 30.6133 36.8525 30.208C36.6538 30.1335 36.4596 30.0139 36.2403 30.147C35.3517 30.6391 35.2398 31.463 35.3152 32.3389C35.3571 32.8505 35.3349 33.3653 35.2489 33.8716C35.1988 34.1801 35.169 34.4915 35.1598 34.8038C35.1598 34.4472 35.1735 34.0905 35.1598 33.7339C35.1393 33.1628 35.2649 32.5352 34.8537 32.0228C34.6481 32.0228 34.4608 31.7971 34.2393 31.9664C33.9358 32.2595 33.7254 32.6337 33.6339 33.0431C33.4672 34.235 33.1154 35.402 33.0514 36.6097C32.925 38.6842 33.1638 40.7647 33.7573 42.7585C34.1159 43.9391 34.7875 44.7246 35.9045 45.1197C37.3048 45.6163 38.7325 45.8781 40.1008 44.9797C40.732 43.5131 41.6214 42.1688 42.7277 41.0091C43.013 40.7073 43.2447 40.3601 43.413 39.9821C43.6163 39.4155 43.8219 38.8534 44.2605 38.402C44.3679 38.2959 44.5027 38.1898 44.457 38.0047ZM39.1756 32.9167C39.2008 32.691 39.2305 32.4653 39.2487 32.2237C39.2443 32.3942 39.2534 32.5648 39.2762 32.7339C39.3397 33.0653 39.3451 33.4051 39.2921 33.7384C39.0477 34.8467 39.1962 35.928 39.5023 37.0227C39.1231 37.0227 38.9061 36.9618 39.0112 36.5194C39.0975 36.1114 39.1214 35.6929 39.082 35.2779C39.0413 34.4896 39.0726 33.6994 39.1756 32.9167ZM34.8674 37.5352C34.824 37.5532 34.7943 37.5713 34.7669 37.5532C34.8621 37.4683 34.9367 37.3634 34.9853 37.2462C35.0339 37.129 35.0553 37.0025 35.0479 36.876C35.0799 36.2192 35.1324 35.5645 35.1553 34.9077C35.1433 35.4521 35.2094 35.9955 35.3517 36.5216C35.5527 37.2485 35.5687 37.2417 34.8674 37.5352Z" fill="#FFBC1F"/>
<path d="M40.3197 30.8355C39.559 31.1583 39.2689 31.7565 39.4356 32.7249C39.4911 33.2516 39.4719 33.7835 39.3785 34.305C39.2803 35.2079 39.2986 36.1447 39.7554 36.9979C39.7989 37.0814 39.8217 37.1762 39.8811 37.3365L38.6064 37.0182C39.0633 36.2824 38.8943 35.49 38.9011 34.7271C38.917 33.4752 39.0231 32.226 39.2186 30.989C39.3615 30.8505 39.5455 30.7609 39.7436 30.7333C39.9417 30.7057 40.1436 30.7415 40.3197 30.8355Z" fill="#CC8F00"/>
<path d="M43.4176 39.9798C43.3696 39.1197 43.895 38.5532 44.457 38.0046C44.7151 38.2304 44.5643 38.4358 44.4318 38.6231C44.1052 39.0836 43.758 39.5283 43.4176 39.9798Z" fill="#FFD470"/>
<path d="M41.4005 38.4877C41.3531 38.539 41.3159 38.5988 41.2909 38.6638C41.1949 38.9504 40.9711 39.0001 40.6901 39.043C39.4246 39.2326 38.3236 39.7044 37.7205 40.9233C37.6333 40.9814 37.5653 41.0635 37.5247 41.1593C37.4841 41.2552 37.4728 41.3607 37.4921 41.4628L37.8256 41.0475C38.4561 40.2822 39.299 39.9437 40.2652 39.8353C40.5302 39.8037 40.9048 39.8556 41.0168 39.5847C41.0168 39.5847 42.2594 37.8015 43.3559 37.3275C43.3628 37.3365 42.2686 37.183 41.4005 38.4877Z" fill="#CC8F00"/>
<path d="M39.9592 44.9142C38.5886 45.6998 37.1929 45.4357 35.8291 44.9142C35.1142 44.6389 34.4586 44.2145 34.1707 43.456C33.0994 40.5736 32.8846 37.4485 33.5517 34.4494C33.7139 33.7068 33.7459 32.928 34.1228 32.2508C34.206 32.143 34.321 32.0634 34.4519 32.023C34.5828 31.9826 34.7232 31.9833 34.8537 32.0251C34.6802 31.917 34.4715 31.8786 34.2702 31.9176C34.0689 31.9566 33.8903 32.0702 33.771 32.235L33.7344 32.2757C33.5739 32.4968 33.4548 32.7444 33.3826 33.007C32.9829 34.1763 32.871 35.402 32.8001 36.6187C32.7065 38.2146 32.6722 39.824 33.1793 41.359C33.4519 42.0991 33.606 42.8767 33.6362 43.6637C33.6296 43.9123 33.6895 44.1582 33.8098 44.3765C33.9301 44.5949 34.1066 44.7781 34.3215 44.9075C35.4246 45.6752 36.7513 46.066 38.0997 46.0203C38.9107 45.991 39.6988 45.781 40.1031 44.9616C40.0642 44.9549 39.9843 44.8984 39.9592 44.9142Z" fill="#CC8F00"/>
<path d="M36.8526 30.2057C36.8526 30.2057 36.213 29.7114 35.4066 30.4608C35.1852 30.6797 35.0451 30.966 35.0092 31.2734C34.9589 31.5217 34.9041 31.7723 34.8515 32.0206C35.08 33.2937 35.0069 34.5759 34.9201 35.858C34.8721 36.5555 35.1485 37.3681 34.269 37.8376C34.7784 37.718 35.2262 37.5645 35.6785 37.4268C35.8635 37.3704 35.996 37.3162 35.8338 37.113C35.3038 36.4607 35.3769 35.6752 35.3312 34.9144C35.2878 34.2373 35.6031 33.5826 35.5186 32.9213C35.4135 32.0996 35.4181 31.3276 35.8315 30.664C35.9252 30.5127 36.2975 30.0364 36.8526 30.2057Z" fill="#CC8F00"/>
<path d="M38.7671 29.6482C38.6106 29.5084 38.4167 29.416 38.2086 29.382C38.0004 29.348 37.7868 29.3738 37.593 29.4563C37.5457 29.4737 37.4998 29.4949 37.456 29.5195C37.2102 29.7003 37.0069 29.9312 36.8598 30.1967C36.9283 31.2377 36.9283 32.2821 36.8598 33.3231C36.8179 33.8532 36.8079 34.3854 36.8301 34.9167C36.8963 35.6752 36.9945 36.4449 36.5103 37.2305C37.0197 36.9934 37.5268 37.2101 37.9768 36.9144C37.626 36.5791 37.3992 36.1372 37.3326 35.6594C37.0768 34.1109 37.3189 32.5737 37.3098 31.0319C37.2923 30.7862 37.3254 30.5395 37.407 30.3067C37.4887 30.0739 37.6172 29.8599 37.7849 29.6776C37.9197 29.5579 38.2532 29.357 38.7671 29.6482Z" fill="#CC8F00"/>
<path d="M46.017 38.4019C46.4556 38.8534 46.6612 39.4132 46.8645 39.982C47.0335 40.3597 47.2651 40.7068 47.5497 41.0091C48.6581 42.1693 49.5484 43.5154 50.179 44.9842C51.5496 45.8871 52.9773 45.6208 54.3775 45.1242C55.4946 44.7291 56.1662 43.9436 56.5248 42.763C57.1186 40.7693 57.3567 38.6886 57.2284 36.6142C57.1667 35.4065 56.8149 34.2395 56.6481 33.0476C56.5558 32.6385 56.3455 32.2646 56.0428 31.9709C55.8144 31.8061 55.6339 32.0251 55.426 32.0274C55.0149 32.5398 55.1405 33.1673 55.1199 33.7384C55.1062 34.095 55.1199 34.4517 55.1199 34.8083C55.11 34.4959 55.0795 34.1845 55.0286 33.8761C54.9438 33.3697 54.9215 32.855 54.9623 32.3434C55.04 31.4675 54.9281 30.6436 54.0486 30.1515C53.8202 30.0184 53.6329 30.138 53.4341 30.2125C53.2196 30.6181 53.1397 31.08 53.2057 31.533C53.3336 33.2485 53.2057 34.9663 53.3176 36.6819C53.3542 37.262 52.9361 36.7857 52.7328 36.8783C53.3268 35.7 53.2537 34.4539 53.2331 33.2215C53.2194 32.4133 53.1532 31.6075 53.1212 30.7971C53.0983 30.1764 52.8927 29.6233 52.1869 29.4427C51.5587 29.4427 51.2732 29.7926 51.1727 30.3682C51.1384 30.5759 51.2252 30.8039 51.063 30.9867C51.0056 31.3283 50.9903 31.6754 51.0173 32.0206C51.0038 31.9057 50.9824 31.7918 50.9534 31.6797C50.8186 31.1809 50.549 30.8242 49.962 30.8445C49.3178 31.0906 49.183 31.6165 49.1739 32.2215C49.1488 34.253 49.3201 36.2688 49.0894 38.2868C49.0734 38.42 49.1168 38.5667 48.9911 38.6728C48.9774 39.0927 49.2858 39.1581 49.6011 39.201C50.1759 39.2638 50.73 39.4493 51.225 39.7448C51.72 40.0402 52.1441 40.4385 52.4679 40.9121C52.5204 40.9775 52.5592 41.052 52.6163 41.1152C52.5455 41.0768 52.5295 40.9978 52.4793 40.9437C51.9448 40.1717 51.1293 39.8534 50.2567 39.7315C49.6947 39.6547 49.2835 39.4877 49.046 38.9663C48.9158 38.6773 48.6394 38.49 48.484 38.2168L48.3949 38.1311C48.1528 37.8218 47.7668 37.7044 47.4812 37.4539C46.7343 37.2078 46.3391 37.341 45.8274 38.0092C45.7748 38.1898 45.9142 38.2958 46.017 38.4019ZM51.1978 35.2779C51.1603 35.693 51.1849 36.1113 51.2709 36.5194C51.376 36.9708 51.159 37.0295 50.7775 37.0227C51.0859 35.9279 51.2343 34.8467 50.9899 33.7384C50.937 33.4051 50.9424 33.0653 51.0059 32.7339C51.0279 32.5648 51.0363 32.3942 51.031 32.2237C51.0516 32.4495 51.079 32.6887 51.1064 32.9167C51.2076 33.6995 51.2382 34.4897 51.1978 35.2779ZM54.9303 36.5171C55.0719 35.9909 55.1372 35.4475 55.1245 34.9031C55.1496 35.56 55.1999 36.2146 55.2342 36.8715C55.2257 36.9981 55.2466 37.1249 55.2953 37.2422C55.344 37.3596 55.4192 37.4644 55.5151 37.5487C55.4854 37.5667 55.458 37.5487 55.4146 37.5306C54.7111 37.2417 54.7293 37.2485 54.9303 36.5171Z" fill="#FFBC1F"/>
<path d="M49.9619 30.8356C50.7226 31.1584 51.0104 31.7566 50.8459 32.7249C50.7897 33.2516 50.8082 33.7834 50.9008 34.305C51.0013 35.208 50.983 36.1447 50.5261 36.998C50.4766 37.1079 50.4346 37.2211 50.4005 37.3366L51.6751 37.0183C51.2183 36.2824 51.3873 35.4901 51.3805 34.7272C51.3639 33.4723 51.2578 32.2202 51.0629 30.98C50.919 30.843 50.7345 30.7551 50.5364 30.7291C50.3383 30.7031 50.137 30.7404 49.9619 30.8356Z" fill="#CC8F00"/>
<path d="M46.8648 39.9798C46.9127 39.1197 46.3874 38.5532 45.8231 38.0046C45.565 38.2304 45.7181 38.4358 45.8505 38.6231C46.1772 39.0836 46.5244 39.5283 46.8648 39.9798Z" fill="#FFD470"/>
<path d="M48.8817 38.4877C48.9283 38.5396 48.9654 38.5992 48.9913 38.6638C49.0873 38.9504 49.3111 39.0001 49.5898 39.043C50.8576 39.2326 51.9586 39.7044 52.5594 40.9233C52.6449 40.9825 52.7111 41.0651 52.7496 41.161C52.7882 41.2568 52.7975 41.3618 52.7764 41.4628L52.4429 41.0475C51.8147 40.2822 50.9718 39.9437 50.0056 39.8353C49.7406 39.8037 49.3659 39.8556 49.2517 39.5847C49.2517 39.5847 48.0114 37.8015 46.9126 37.3275C46.9172 37.3365 48.0136 37.183 48.8817 38.4877Z" fill="#CC8F00"/>
<path d="M50.323 44.9142C51.6935 45.6998 53.0892 45.4357 54.453 44.9142C55.168 44.6389 55.8236 44.2145 56.1114 43.456C57.181 40.5732 57.395 37.4484 56.7281 34.4494C56.566 33.7068 56.5363 32.928 56.1571 32.2508C56.0739 32.143 55.9589 32.0634 55.8279 32.023C55.697 31.9826 55.5566 31.9833 55.4261 32.0251C55.5996 31.917 55.8084 31.8786 56.0097 31.9176C56.2109 31.9566 56.3895 32.0702 56.5089 32.235L56.5477 32.2757C56.7082 32.4968 56.8273 32.7444 56.8995 33.007C57.2992 34.1763 57.4112 35.402 57.482 36.6187C57.5756 38.2146 57.6099 39.824 57.1028 41.359C56.8292 42.0988 56.675 42.8766 56.6459 43.6637C56.6521 43.9122 56.592 44.1579 56.4717 44.3762C56.3514 44.5945 56.1752 44.7777 55.9606 44.9075C54.8574 45.6749 53.5308 46.0657 52.1824 46.0203C51.3692 45.991 50.5834 45.781 50.1768 44.9616C50.2293 44.9549 50.2955 44.8984 50.323 44.9142Z" fill="#CC8F00"/>
<path d="M53.4272 30.2057C53.4272 30.2057 54.0669 29.7114 54.8732 30.4608C55.095 30.6791 55.2345 30.9659 55.2684 31.2734C55.3187 31.5217 55.3735 31.7723 55.426 32.0206C55.1976 33.2937 55.2707 34.5759 55.3598 35.858C55.4077 36.5555 55.1313 37.3681 56.0108 37.8376C55.4991 37.718 55.0537 37.5645 54.5991 37.4268C54.4164 37.3704 54.2816 37.3162 54.4461 37.113C54.9737 36.4607 54.9029 35.6752 54.9486 34.9144C54.9897 34.2373 54.6768 33.5826 54.7613 32.9213C54.8641 32.0996 54.8595 31.3276 54.4483 30.664C54.357 30.5127 53.9846 30.0364 53.4272 30.2057Z" fill="#CC8F00"/>
<path d="M51.5127 29.6482C51.6696 29.5083 51.8639 29.4158 52.0724 29.3817C52.281 29.3477 52.495 29.3736 52.6891 29.4564C52.7359 29.4733 52.781 29.4945 52.8239 29.5196C53.0695 29.6998 53.2722 29.9309 53.4178 30.1968C53.3504 31.2378 53.3504 32.2821 53.4178 33.3231C53.4601 33.8533 53.4692 34.3855 53.4452 34.9168C53.379 35.6752 53.283 36.4449 53.765 37.2305C53.2579 36.9935 52.7508 37.2102 52.2985 36.9145C52.651 36.5804 52.8782 36.1378 52.9427 35.6594C53.1985 34.1109 52.9587 32.5737 52.9678 31.032C52.9848 30.7862 52.9514 30.5397 52.8698 30.307C52.7881 30.0743 52.6599 29.8602 52.4927 29.6776C52.3625 29.5579 52.0289 29.357 51.5127 29.6482Z" fill="#CC8F00"/>
<path d="M39.966 26.1923L39.7101 26.7318C39.6359 26.8894 39.6062 27.0639 39.6243 27.2368C39.6424 27.4097 39.7076 27.5745 39.8129 27.7137L42.3257 31.0297C42.3376 31.0439 42.3539 31.0539 42.3721 31.058C42.3903 31.0622 42.4094 31.0602 42.4264 31.0525C42.4433 31.0447 42.4572 31.0316 42.4659 31.0153C42.4745 30.9989 42.4774 30.9802 42.4742 30.962C42.2868 30.1268 41.6998 27.9891 40.2926 26.1562C40.2719 26.1314 40.2451 26.112 40.2149 26.1C40.1847 26.0879 40.1519 26.0834 40.1194 26.087C40.087 26.0906 40.056 26.1021 40.0292 26.1205C40.0025 26.1389 39.9807 26.1636 39.966 26.1923Z" fill="#3F4350"/>
<path d="M43.084 27.3028C43.084 27.3028 42.7254 27.0545 42.5518 27.4157C42.4284 27.673 42.9173 28.5985 43.2142 29.12C43.2261 29.1413 43.245 29.1581 43.2678 29.1675C43.2905 29.177 43.3158 29.1786 43.3396 29.172C43.3634 29.1655 43.3842 29.1512 43.3988 29.1316C43.4134 29.1119 43.4208 29.0879 43.4198 29.0635C43.3924 28.4631 43.3147 27.4225 43.084 27.3028Z" fill="#3F4350"/>
<path d="M44.8882 23.4903L44.694 23.5174C44.5635 23.5363 44.446 23.6057 44.3672 23.7102C44.2884 23.8148 44.2548 23.9459 44.2737 24.0749L45.1303 29.9868C45.1332 30.0018 45.1413 30.0153 45.1532 30.0251C45.165 30.0348 45.18 30.0401 45.1954 30.0401C45.2109 30.0401 45.2258 30.0348 45.2377 30.0251C45.2496 30.0153 45.2577 30.0018 45.2605 29.9868L46.1172 24.0749C46.1361 23.9459 46.1025 23.8148 46.0237 23.7102C45.9449 23.6057 45.8273 23.5363 45.6968 23.5174L45.505 23.4903C45.3005 23.4609 45.0927 23.4609 44.8882 23.4903Z" fill="#3F4350"/>
<path d="M50.4255 26.1923L50.6813 26.7318C50.7561 26.8893 50.786 27.0639 50.7679 27.2369C50.7498 27.4099 50.6843 27.5747 50.5785 27.7137L48.0658 31.0297C48.0539 31.0439 48.0376 31.0539 48.0194 31.058C48.0012 31.0622 47.9821 31.0602 47.9651 31.0525C47.9481 31.0447 47.9342 31.0316 47.9256 31.0153C47.917 30.9989 47.914 30.9802 47.9173 30.962C48.1046 30.1268 48.6917 27.9891 50.0988 26.1562C50.1196 26.1314 50.1463 26.112 50.1766 26.1C50.2068 26.0879 50.2396 26.0834 50.272 26.087C50.3045 26.0906 50.3355 26.1021 50.3622 26.1205C50.389 26.1389 50.4108 26.1636 50.4255 26.1923Z" fill="#3F4350"/>
<path d="M47.3099 27.3028C47.3099 27.3028 47.6662 27.0545 47.8398 27.4157C47.9632 27.673 47.4743 28.5985 47.1774 29.12C47.1663 29.1422 47.1477 29.16 47.1248 29.1701C47.1019 29.1802 47.0761 29.1821 47.052 29.1754C47.0278 29.1687 47.0068 29.1538 46.9925 29.1334C46.9783 29.1129 46.9718 29.0882 46.9741 29.0635C46.9992 28.4631 47.0769 27.4225 47.3099 27.3028Z" fill="#3F4350"/>
<path d="M32.2144 99.0428C32.2144 99.0428 32.868 91.2547 36.9845 87.3298C41.1009 83.4049 45.0394 80.8061 53.3509 80.2995C61.6624 79.7929 66.871 88.1782 67.6777 89.6732C68.4845 91.1682 70.8758 95.6039 70.8758 99.0428C70.8758 102.482 70.9006 109.706 65.9732 112.914C61.0459 116.122 56.3048 117.992 52.9041 117.815C49.5034 117.638 40.9065 116.925 37.0548 111.576C33.2031 106.226 32.2144 104.516 32.2144 99.0428Z" fill="#FFBC1F"/>
<path d="M52.2179 84.3439C53.9725 83.8445 55.8544 84.0577 57.4513 84.9369C57.4966 84.9631 57.5493 84.9738 57.6013 84.9674C57.6533 84.961 57.7018 84.9378 57.7393 84.9014C57.7768 84.8649 57.8013 84.8173 57.8091 84.7657C57.8169 84.7141 57.8074 84.6614 57.7823 84.6157C57.05 83.2771 55.1387 80.839 51.9903 83.9402C51.9518 83.9769 51.9266 84.0252 51.9187 84.0777C51.9108 84.1301 51.9206 84.1837 51.9467 84.23C51.9728 84.2762 52.0136 84.3125 52.0627 84.3331C52.1118 84.3538 52.1664 84.3575 52.2179 84.3439Z" fill="#FFD470"/>
<path d="M44.4645 114.269C42.4498 112.21 39.7648 109.59 40.0337 100.633C40.3026 91.6748 42.4539 88.5035 43.9929 86.123C44.8203 84.8298 47.7411 82.1569 51.3156 80.4766C44.357 81.2632 40.7329 83.7426 36.9639 87.3298C32.8268 91.2506 32.1938 99.0387 32.1938 99.0387C32.1938 104.512 33.2033 106.226 37.055 111.571C40.9066 116.917 49.4994 117.634 52.9043 117.811C52.9001 117.811 46.4793 116.341 44.4645 114.269Z" fill="#CC8F00"/>
<path d="M53.4503 112.189C53.4503 112.189 64.2068 112.391 66.0933 102.371C66.13 102.186 66.128 101.997 66.0877 101.813C66.0473 101.63 65.9693 101.457 65.8586 101.305C65.748 101.153 65.6069 101.026 65.4444 100.93C65.2819 100.835 65.1014 100.774 64.9142 100.752C56.9066 99.9455 48.8321 100.067 40.8527 101.114C40.6712 101.14 40.4967 101.201 40.3399 101.296C40.1831 101.39 40.0471 101.515 39.9404 101.664C39.8336 101.812 39.7582 101.98 39.7187 102.158C39.6793 102.336 39.6766 102.521 39.7109 102.7C40.2321 105.496 42.6069 111.534 53.4503 112.189Z" fill="#6F370B"/>
<path d="M54.6169 111.46C54.6169 111.46 48.0471 111.95 45.3042 109.211C45.3042 109.211 45.6186 108.977 45.6352 108.964C45.9895 108.756 46.369 108.592 46.7646 108.478C47.4517 108.282 48.1601 108.168 48.8745 108.141C49.2882 108.12 49.702 108.112 50.1364 108.141C50.573 108.144 51.0072 108.207 51.4271 108.326C51.8413 108.461 52.2406 108.637 52.6186 108.853C53.1833 109.148 53.6795 109.558 54.0749 110.056C54.3855 110.463 54.5734 110.95 54.6169 111.46Z" fill="#C43133"/>
<path d="M43.4507 101.415C43.4507 101.415 52.8544 100.834 63.3751 101.057C63.3751 101.057 62.8372 103.153 53.1233 103.153C50.9306 103.153 43.8561 104.002 43.4507 101.415Z" fill="white"/>
<path d="M47.989 92.7621C48.0924 95.1591 47.1615 97.1442 45.8873 97.1978C44.6131 97.2513 43.5167 95.3527 43.405 92.9557C43.2933 90.5587 44.2324 88.5777 45.5067 88.5242C46.7809 88.4706 47.8897 90.361 47.989 92.7621Z" fill="#6F370B"/>
<path d="M62.312 92.7744C62.403 94.8707 61.5797 96.6087 60.471 96.6582C59.3622 96.7076 58.4024 95.0437 58.3073 92.9515C58.2121 90.8593 59.0395 89.1171 60.1483 89.0677C61.257 89.0183 62.221 90.6781 62.312 92.7744Z" fill="#6F370B"/>
</svg>
