<svg width="200" height="200" viewBox="0 0 200 200" fill="none" xmlns="http://www.w3.org/2000/svg">
    <g clip-path="url(#clip0_1023_92269)">
        <path
            d="M100.489 58.9117H152.495C154.053 58.9006 155.597 59.1999 157.04 59.7925C158.483 60.3851 159.795 61.2593 160.902 62.3648C162.009 63.4704 162.889 64.7857 163.491 66.2351C164.093 67.6845 164.405 69.2395 164.41 70.8109V125.223C164.403 126.793 164.09 128.347 163.487 129.795C162.885 131.243 162.005 132.557 160.898 133.661C159.791 134.765 158.479 135.639 157.037 136.23C155.595 136.822 154.052 137.121 152.495 137.11H139.985V157.543L121.196 137.11H100.489C98.932 137.121 97.3884 136.822 95.9465 136.23C94.5046 135.639 93.1925 134.765 92.0857 133.661C90.9789 132.557 90.099 131.243 89.4964 129.795C88.8938 128.347 88.5805 126.793 88.5742 125.223V70.8109C88.5789 69.2395 88.8911 67.6845 89.493 66.2351C90.0949 64.7857 90.9745 63.4704 92.0815 62.3648C93.1885 61.2593 94.501 60.3851 95.9437 59.7925C97.3864 59.1999 98.931 58.9006 100.489 58.9117Z"
            fill="#1C58D9" />
        <path
            d="M132.289 42.5533H47.4584C45.9007 42.5422 44.3562 42.8415 42.9135 43.4341C41.4708 44.0267 40.1582 44.9009 39.0513 46.0064C37.9443 47.112 37.0646 48.4273 36.4627 49.8767C35.8608 51.3261 35.5486 52.8811 35.5439 54.4525V108.816C35.5502 110.387 35.8636 111.94 36.4661 113.389C37.0687 114.837 37.9486 116.15 39.0555 117.255C40.1623 118.359 41.4743 119.232 42.9162 119.824C44.3581 120.416 45.9017 120.715 47.4584 120.704H59.9804V141.137L78.7695 120.704H132.289C133.846 120.715 135.389 120.416 136.831 119.824C138.273 119.232 139.585 118.359 140.692 117.255C141.799 116.15 142.679 114.837 143.281 113.389C143.884 111.94 144.197 110.387 144.203 108.816V54.4525C144.199 52.8811 143.887 51.3261 143.285 49.8767C142.683 48.4273 141.803 47.112 140.696 46.0064C139.589 44.9009 138.277 44.0267 136.834 43.4341C135.391 42.8415 133.847 42.5422 132.289 42.5533Z"
            fill="#FFBC1F" />
        <path
            d="M60.9328 73.8638C62.4443 73.8614 63.9226 74.3115 65.1803 75.1572C66.438 76.0029 67.4187 77.206 67.9983 78.6143C68.5778 80.0226 68.73 81.5727 68.4357 83.0683C68.1414 84.564 67.4138 85.9379 66.345 87.0161C65.2762 88.0943 63.9143 88.8283 62.4318 89.1252C60.9492 89.4221 59.4126 89.2685 58.0166 88.6839C56.6206 88.0993 55.428 87.1099 54.5897 85.8411C53.7515 84.5723 53.3053 83.081 53.3076 81.5562C53.3108 79.5171 54.1152 77.5623 55.5445 76.1204C56.9738 74.6784 58.9115 73.867 60.9328 73.8638Z"
            fill="white" />
        <path
            d="M89.8967 73.8638C91.4082 73.8614 92.8864 74.3115 94.1442 75.1572C95.4019 76.0029 96.3826 77.206 96.9621 78.6143C97.5417 80.0226 97.6939 81.5727 97.3996 83.0683C97.1053 84.564 96.3777 85.9379 95.3089 87.0161C94.2401 88.0943 92.8782 88.8283 91.3957 89.1252C89.9131 89.4221 88.3765 89.2685 86.9805 88.6839C85.5845 88.0993 84.3919 87.1099 83.5536 85.8411C82.7153 84.5723 82.2691 83.081 82.2715 81.5562C82.2746 79.5171 83.079 77.5623 84.5084 76.1204C85.9377 74.6784 87.8753 73.867 89.8967 73.8638Z"
            fill="white" />
        <path
            d="M118.861 73.8638C120.372 73.8614 121.85 74.3115 123.108 75.1572C124.366 76.0029 125.346 77.206 125.926 78.6143C126.506 80.0226 126.658 81.5727 126.363 83.0683C126.069 84.564 125.342 85.9379 124.273 87.0161C123.204 88.0943 121.842 88.8283 120.36 89.1252C118.877 89.4221 117.34 89.2685 115.944 88.6839C114.548 88.0993 113.356 87.1099 112.517 85.8411C111.679 84.5723 111.233 83.081 111.235 81.5562C111.239 79.5171 112.043 77.5623 113.472 76.1204C114.902 74.6784 116.839 73.867 118.861 73.8638Z"
            fill="white" />
    </g>
    <defs>
        <clipPath id="clip0_1023_92269">
            <rect width="128.723" height="114.894" fill="white" transform="translate(35.6387 42.5532)" />
        </clipPath>
    </defs>
</svg>