<svg width="200" height="200" viewBox="0 0 200 200" fill="none" xmlns="http://www.w3.org/2000/svg">
    <path
        d="M107.7 165.8C104.744 170.325 98.0681 170.977 92.8772 167.313L34.2645 126.034C32.3518 124.743 31.0113 122.764 30.5225 120.509C30.0338 118.254 30.4345 115.897 31.6412 113.93L83.2032 35.1611C84.6257 33.2242 86.6662 31.8304 88.9877 31.2096C91.3092 30.5888 93.773 30.7782 95.9723 31.7466L162.51 61.0196C168.395 63.6152 170.838 69.3476 167.909 73.9419L107.7 165.8Z"
        fill="#FFBC1F" />
    <path d="M98.3731 160.442L37.9561 119.135L91.1003 37.9648L158.429 68.7091L98.3731 160.442Z" fill="white" />
    <path
        d="M136.625 62.9489C136.108 63.599 135.382 64.0507 134.571 64.2277C133.759 64.4047 132.911 64.2961 132.17 63.9205L106.757 51.9837C106.428 51.8637 106.13 51.6716 105.885 51.4213C105.64 51.1711 105.454 50.8692 105.341 50.5377C105.227 50.2063 105.19 49.8537 105.231 49.5059C105.272 49.158 105.39 48.8237 105.577 48.5276L109.56 42.4342C110.031 41.8109 110.702 41.3685 111.46 41.1815C112.218 40.9944 113.018 41.0741 113.724 41.4071L139.471 52.8443C139.828 52.9588 140.155 53.1524 140.427 53.4105C140.699 53.6686 140.91 53.9848 141.043 54.3354C141.176 54.6861 141.229 55.0623 141.197 55.4361C141.165 55.8099 141.049 56.1717 140.859 56.4947L136.625 62.9489Z"
        fill="#8D93A5" />
    <path
        d="M131.767 55.0373L115.39 47.5976L119.429 41.421C119.908 40.8095 120.578 40.3752 121.332 40.1867C122.086 39.9982 122.881 40.0662 123.592 40.38L134.488 45.0992C134.841 45.2073 135.166 45.3943 135.437 45.646C135.708 45.8978 135.918 46.2078 136.052 46.5526C136.185 46.8974 136.239 47.2681 136.208 47.6367C136.178 48.0052 136.064 48.362 135.876 48.6803L131.767 55.0373Z"
        fill="#1C58D9" />
    <path d="M132.961 88.5019L98.9707 71.0547L100.747 68.3342L134.863 85.601L132.961 88.5019Z" fill="#FFBC1F" />
    <path
        d="M88.255 69.2781C88.1756 69.3296 88.0854 69.3624 87.9914 69.374C87.8974 69.3855 87.802 69.3755 87.7124 69.3447C87.6228 69.314 87.5413 69.2633 87.4742 69.1964C87.4071 69.1295 87.3562 69.0483 87.3251 68.9588L85.2432 62.796C85.2164 62.7036 85.2099 62.6065 85.2242 62.5114C85.2384 62.4162 85.2731 62.3253 85.3258 62.2449C85.3786 62.1644 85.4482 62.0964 85.5297 62.0454C85.6113 61.9944 85.7029 61.9616 85.7984 61.9494L86.5895 61.7828C86.7952 61.7395 87.0096 61.7683 87.1966 61.8643C87.3836 61.9604 87.5319 62.1178 87.6165 62.3103L88.727 65.5304C88.7563 65.6196 88.8057 65.7007 88.8715 65.7677C88.9372 65.8346 89.0175 65.8855 89.1061 65.9163C89.1947 65.9472 89.2892 65.9573 89.3823 65.9457C89.4754 65.9342 89.5646 65.9013 89.643 65.8497L95.9442 62.2964C96.1399 62.1972 96.3629 62.1653 96.5786 62.2054C96.7943 62.2455 96.9909 62.3556 97.1379 62.5185L97.6375 63.1153C97.7038 63.1879 97.7525 63.2746 97.7797 63.3691C97.807 63.4635 97.8121 63.5629 97.7947 63.6596C97.7772 63.7564 97.7377 63.8478 97.6791 63.9267C97.6205 64.0056 97.5446 64.0699 97.4571 64.1147L88.255 69.2781Z"
        fill="#FFBC1F" />
    <path d="M121.844 105.477L88.5195 87.0168L90.31 84.2825L123.745 102.576L121.844 105.477Z" fill="#BABEC9" />
    <path d="M82.1342 87.6553L72.3076 82.1311L77.9704 73.4561L87.922 78.8137L82.1342 87.6553Z" fill="#BABEC9" />
    <path d="M110.726 122.466L78.082 102.965L79.8586 100.23L112.628 119.565L110.726 122.466Z" fill="#BABEC9" />
    <path d="M71.7807 103.478L62.1484 97.635L67.8251 88.96L77.5823 94.6369L71.7807 103.478Z" fill="#BABEC9" />
    <path d="M99.6088 139.442L67.6445 118.913L69.4211 116.193L101.51 136.541L99.6088 139.442Z" fill="#BABEC9" />
    <path d="M61.4263 119.288L51.9883 113.139L57.6788 104.478L67.2279 110.446L61.4263 119.288Z" fill="#BABEC9" />
</svg>