<svg width="300" height="245" viewBox="0 0 300 245" fill="none" xmlns="http://www.w3.org/2000/svg">
<ellipse cx="80.5232" cy="106.668" rx="78.2956" ry="78.1509" fill="white"/>
<path d="M80.5232 185.408C124.089 185.408 159.408 150.156 159.408 106.668C159.408 63.18 124.089 27.9277 80.5232 27.9277C36.9572 27.9277 1.63807 63.18 1.63807 106.668C1.63807 150.156 36.9572 185.408 80.5232 185.408Z" stroke="#3F4350" stroke-opacity="0.16" stroke-width="1.17895"/>
<ellipse cx="80.5232" cy="106.668" rx="78.2956" ry="78.1509" fill="#3F4350" fill-opacity="0.16"/>
<mask id="mask0_2352_4354" style="mask-type:alpha" maskUnits="userSpaceOnUse" x="2" y="28" width="157" height="157">
<ellipse cx="80.5232" cy="106.668" rx="78.2956" ry="78.1509" fill="white"/>
</mask>
<g mask="url(#mask0_2352_4354)">
<path d="M47.2334 90.5902H68.9615L69.7233 78.4832C70.976 78.1114 73.8116 75.6613 74.6157 75.3318C77.993 73.98 81.5988 55.2238 80.5239 52.5033C79.1526 49.4617 69.5963 54.1001 64.8139 52.5793C60.4125 51.1768 54.6397 57.0149 54.3773 63.6641L47.2334 90.5902Z" fill="#FFBC1F"/>
<ellipse cx="76.2916" cy="60.2001" rx="1.26966" ry="1.26731" fill="#6F370B"/>
<path d="M104.647 182.622C95.5987 185.917 85.8308 187.708 75.6397 187.708C69.7993 187.708 64.0943 187.117 58.584 185.993C40.4702 182.293 24.4555 172.839 12.5461 159.625C12.3345 153.28 12.3176 145.845 12.58 137.151C14.1628 85.5717 17.4386 88.0894 62.6723 87.7514C113.814 87.3712 106.823 108.899 107.483 127.021C107.906 138.562 106.399 165.057 104.647 182.622Z" fill="white"/>
<path d="M54.9017 99.8161C58.1097 101.007 66.6672 100.45 68.4363 97.8898C69.6551 96.1156 70.8148 94.2906 72.0082 92.4995C72.9647 91.0548 73.9043 89.61 74.8184 88.1399C71.1872 87.8527 67.1581 87.7175 62.672 87.7513C56.6792 87.7935 51.4398 87.7935 46.8267 87.8696C51.2451 92.753 48.765 97.5434 54.9017 99.8161Z" fill="#FFBC1F"/>
<path d="M107.474 115.674C105.891 115.784 104.334 116.029 102.869 116.274C95.3359 117.55 99.4496 119.992 99.7289 147.754C99.8728 161.788 102.328 169.789 100.846 183.805C100.846 183.839 100.829 183.864 100.829 183.898C102.116 183.501 103.394 183.079 104.655 182.614C106.407 165.049 107.914 138.554 107.491 127.013C107.355 123.304 107.542 119.451 107.491 115.666L107.474 115.674Z" fill="#FFBC1F"/>
<path d="M87.6081 173.498C87.2949 182.191 86.4484 180.764 79.2537 176.091C73.7095 172.492 64.3733 181.355 50.7456 183.991C39.4033 180.519 29.0768 174.74 20.3077 167.195C14.4419 152.9 13.2314 133.172 13.2314 121.969C13.2314 120.845 39.835 123.413 39.835 123.413C39.6827 143.75 41.7226 167.482 58.5837 164.483C75.4447 161.492 87.9297 164.804 87.6081 173.498Z" fill="#FFBC1F"/>
<path d="M156.246 129.446C145.141 163.275 113.247 187.708 75.6397 187.708C69.7993 187.708 64.0943 187.117 58.584 185.993V178.516H84.7474C84.7474 178.516 97.4525 130.291 97.334 129.446H156.246Z" fill="#484D5B"/>
<path d="M124.894 129.446H97.3342C97.385 129.826 94.7949 139.998 91.9424 150.982C102.955 143.851 113.924 136.653 124.894 129.446Z" fill="#6C7389"/>
<path d="M110.301 149.74C117.75 145.11 125.216 140.505 132.715 135.96C136.092 133.915 139.36 131.643 142.669 129.446H131.056C117.623 138.275 104.19 147.095 90.6895 155.823C90.0377 158.341 89.386 160.833 88.7681 163.199C95.9459 158.712 103.115 154.209 110.301 149.74Z" fill="#6C7389"/>
<path d="M83.9601 45.7358C82.1995 43.4124 79.5163 45.1275 76.7146 45.9301C70.798 48.4394 63.2731 44.1559 57.8051 47.5269C53.6153 50.1038 52.8873 55.7729 52.5911 60.6816C52.4641 62.836 52.8196 65.6748 54.9442 66.1057C55.6721 66.2493 56.4424 66.0381 57.1618 66.2071C59.1933 66.6718 59.4388 69.4092 59.4218 71.4875C59.3964 75.0783 60.0313 78.8126 62.1558 81.7105C64.2719 84.6084 68.1486 86.4334 71.5767 85.3435C75.6481 84.0508 77.5779 79.5054 78.8476 75.4416C79.5925 73.0337 81.497 68.9529 79.2624 67.7785C76.8669 66.5112 70.4933 69.6204 67.4376 67.5504C65.3638 66.1395 65.4823 63.0979 65.8294 60.614C66.0664 58.9074 66.3626 57.0824 67.5646 55.8489C69.4945 53.855 72.7109 54.2859 75.4872 54.3788C78.0181 54.4718 80.7182 54.0916 82.682 52.4863C84.6457 50.8811 85.5006 47.755 83.9686 45.7442L83.9601 45.7358Z" fill="#6F370B"/>
<path d="M79.0675 57.2853C81.1582 63.3008 82.4702 67.6012 82.4702 67.6012C82.1401 69.5191 76.0288 67.5505 76.0288 67.5505L79.0675 57.2853Z" fill="#FFBC1F"/>
<path d="M62.8927 57.2852C62.8927 57.2852 58.4489 56.0263 58.5928 60.2085C58.7367 64.3906 63.6037 63.4781 63.6037 63.4781L62.9012 57.2852H62.8927Z" fill="#FFBC1F"/>
</g>
<path d="M176.057 21.3763H117.055C115.974 21.3726 114.902 21.5827 113.902 21.9947C112.902 22.4066 111.992 23.0124 111.225 23.7772C110.458 24.5421 109.848 25.4512 109.431 26.4525C109.014 27.4539 108.797 28.5279 108.793 29.6133V67.2532C108.797 68.3386 109.014 69.4126 109.431 70.414C109.848 71.4153 110.458 72.3244 111.225 73.0893C111.992 73.8541 112.902 74.4599 113.902 74.8718C114.902 75.2838 115.974 75.4939 117.055 75.4902H125.763V89.5799L138.824 75.4902H176.036C177.117 75.4939 178.189 75.2838 179.189 74.8718C180.189 74.4599 181.099 73.8541 181.866 73.0893C182.633 72.3244 183.243 71.4153 183.66 70.414C184.077 69.4126 184.294 68.3386 184.298 67.2532V29.6133C184.29 27.4249 183.418 25.3288 181.874 23.7847C180.329 22.2405 178.237 21.3744 176.057 21.3763Z" fill="#FFBC1F"/>
<path d="M138.824 75.4902H176.036C177.117 75.4939 178.189 75.2837 179.189 74.8718C180.189 74.4598 181.099 73.8541 181.866 73.0892C182.633 72.3243 183.243 71.4153 183.66 70.4139C184.077 69.4126 184.294 68.3386 184.298 67.2532V44.4021C184.298 44.4021 181.699 65.5331 181.233 67.393C180.766 69.253 179.839 72.036 175.451 72.4975C171.062 72.959 138.824 75.4902 138.824 75.4902Z" fill="#CC8F00"/>
<path d="M126.403 43.0525C127.455 43.0525 128.482 43.3654 129.356 43.9516C130.23 44.5379 130.912 45.3711 131.314 46.346C131.716 47.3209 131.821 48.3936 131.616 49.4285C131.411 50.4634 130.905 51.4141 130.162 52.1602C129.418 52.9064 128.471 53.4145 127.44 53.6203C126.409 53.8262 125.341 53.7205 124.369 53.3167C123.398 52.9129 122.568 52.2291 121.984 51.3517C121.4 50.4744 121.088 49.4429 121.088 48.3877C121.087 47.6868 121.224 46.9926 121.491 46.3449C121.758 45.6972 122.149 45.1087 122.643 44.6131C123.137 44.1175 123.723 43.7245 124.368 43.4567C125.014 43.1889 125.705 43.0516 126.403 43.0525Z" fill="white"/>
<path d="M146.557 43.0525C147.608 43.0525 148.636 43.3654 149.51 43.9516C150.384 44.5379 151.065 45.3711 151.467 46.346C151.869 47.3209 151.975 48.3936 151.77 49.4285C151.565 50.4634 151.058 51.4141 150.315 52.1602C149.572 52.9064 148.625 53.4145 147.594 53.6203C146.563 53.8262 145.494 53.7205 144.523 53.3167C143.552 52.9129 142.721 52.2291 142.137 51.3517C141.553 50.4744 141.242 49.4429 141.242 48.3877C141.241 47.6868 141.378 46.9926 141.644 46.3449C141.911 45.6972 142.303 45.1087 142.796 44.6131C143.29 44.1175 143.876 43.7245 144.522 43.4567C145.167 43.1889 145.859 43.0516 146.557 43.0525Z" fill="white"/>
<path d="M166.687 43.0525C167.739 43.0511 168.767 43.3628 169.642 43.9482C170.517 44.5336 171.2 45.3664 171.603 46.3411C172.006 47.3159 172.112 48.3888 171.908 49.4242C171.704 50.4596 171.198 51.4109 170.455 52.1577C169.712 52.9046 168.765 53.4134 167.734 53.6198C166.703 53.8262 165.634 53.721 164.662 53.3174C163.69 52.9138 162.86 52.23 162.276 51.3525C161.691 50.4749 161.379 49.4432 161.379 48.3877C161.378 47.6874 161.515 46.9938 161.781 46.3465C162.048 45.6993 162.439 45.1111 162.932 44.6155C163.425 44.12 164.01 43.727 164.655 43.4587C165.299 43.1905 165.99 43.0525 166.687 43.0525Z" fill="white"/>
<path d="M114.917 37.1372C115.516 35.0071 116.53 33.0172 117.898 31.2819C119.267 29.5466 120.965 28.1003 122.893 27.0262C123.007 26.9683 123.099 26.8739 123.154 26.758C123.209 26.642 123.224 26.511 123.197 26.3855C123.17 26.2599 123.102 26.1469 123.004 26.0642C122.906 25.9815 122.784 25.9338 122.656 25.9284C118.936 25.7047 111.427 26.5018 113.781 37.0813C113.806 37.2104 113.873 37.3274 113.972 37.4136C114.071 37.4998 114.196 37.5501 114.327 37.5566C114.458 37.563 114.587 37.5252 114.694 37.4492C114.801 37.3731 114.879 37.2633 114.917 37.1372Z" fill="#FFD470"/>
<ellipse cx="234.835" cy="177.743" rx="63.212" ry="63.0952" fill="white"/>
<path d="M234.835 241.427C270.071 241.427 298.637 212.916 298.637 177.743C298.637 142.57 270.071 114.058 234.835 114.058C199.6 114.058 171.034 142.57 171.034 177.743C171.034 212.916 199.6 241.427 234.835 241.427Z" stroke="#3F4350" stroke-opacity="0.16" stroke-width="1.17895"/>
<ellipse cx="234.835" cy="177.743" rx="63.212" ry="63.0952" fill="#3F4350" fill-opacity="0.16"/>
<mask id="mask1_2352_4354" style="mask-type:alpha" maskUnits="userSpaceOnUse" x="171" y="114" width="128" height="127">
<ellipse cx="234.835" cy="177.743" rx="63.212" ry="63.0952" fill="white"/>
</mask>
<g mask="url(#mask1_2352_4354)">
<path d="M249.562 148.071C245.939 148.071 242.776 148.215 240.024 148.526C219.227 150.865 227.235 160.349 224.381 187.155C221.154 217.514 214.446 235.986 246.502 239.132C278.558 242.277 283.243 223.605 285.923 189.023C288.603 154.449 281.238 148.071 249.562 148.071Z" fill="white"/>
<path d="M234.071 218.971C234.071 218.971 234.087 227.158 231.633 235.544C231.045 237.565 230.315 239.594 229.394 241.52H198.434C201.507 226.057 202.698 210.292 201.975 194.496C201.935 193.481 200.339 193.481 200.387 194.496C201.11 210.3 199.911 226.065 196.814 241.52H170.634C171.261 240.934 170.785 189.344 186.308 170.695C187.539 169.205 188.961 167.865 190.58 166.724C201.395 159.083 209.138 162.079 215.72 171.931C217.126 174.031 218.476 176.441 219.794 179.136C222.652 184.985 225.352 192.134 228.076 200.211C229.322 203.928 230.585 207.843 231.871 211.917C232.189 212.939 232.514 213.97 232.84 215.016C233.245 216.324 233.658 217.64 234.071 218.971Z" fill="#82889C"/>
<path d="M210.281 241.52H196.813C199.91 226.065 201.109 210.3 200.387 194.496C200.339 193.481 201.61 193.545 201.975 194.496C207.7 209.428 213.354 226.057 210.281 241.52Z" fill="#3F4350"/>
<path d="M282.428 218.004C282.81 226.77 283.334 235.544 282.317 241.52H199.204C202.84 233.872 209.717 229.322 219.261 223.481C223.319 221.008 227.861 218.289 232.84 215.016C233.245 214.739 233.658 214.469 234.071 214.192C234.071 214.192 234.396 214.041 234.992 213.772C241.876 210.665 285.184 191.968 282.897 214.176V214.192C282.762 215.515 282.373 216.776 282.428 218.004Z" fill="#A4A9B7"/>
<path d="M282.421 240.831C283.287 234.878 282.794 226.445 282.421 218.004C282.365 216.776 282.755 215.515 282.89 214.192V214.176C285.168 192.039 242.155 210.546 235.056 213.74C246.847 228.815 263.491 239.214 282.413 240.831H282.421Z" fill="#3F4350"/>
<path d="M240.202 148.753C227.026 149.864 193.284 147.044 188.22 162.406C183.609 176.379 198.428 174.453 202.452 184.567C206.468 194.681 206.699 203.03 210.493 194.026C214.287 185.023 209.794 173.559 207.905 168.614C206.024 163.668 222.621 178.727 232.971 173.335C243.322 167.942 240.202 148.753 240.202 148.753Z" fill="white"/>
<path d="M189.987 159.217C189.234 160.227 188.624 161.325 188.219 162.558C183.613 176.47 198.415 174.553 202.435 184.624C206.447 194.695 206.677 203.007 210.466 194.042C214.256 185.077 209.769 173.662 207.882 168.738C205.472 160.163 194.618 158.238 189.987 159.217Z" fill="#A37200"/>
<path d="M270.801 170.603C270.684 169.606 269.651 169.692 269.722 170.705C271.654 196.815 259.778 204.686 259.778 204.686C271.419 198.102 272.397 183.779 270.801 170.603Z" fill="#3F4350" fill-opacity="0.64"/>
<path d="M225.158 161.597C224.632 164.427 223.355 168.174 223.587 171.141C223.672 172.21 224.299 173.183 224.399 174.285C224.577 176.126 224.817 180.218 224.724 182.084C224.678 183.113 226.287 175.314 225.204 172.073C224.175 168.994 225.661 165.287 226.272 162.031C226.457 161.026 225.343 160.6 225.158 161.605V161.597Z" fill="#3F4350" fill-opacity="0.64"/>
<path d="M224.652 204.004H217.007C216.06 204.004 215.201 203.447 214.853 202.591L209.379 189.362C208.764 187.886 209.889 186.269 211.533 186.269H219.177C220.125 186.269 220.983 186.827 221.331 187.682L226.806 200.911C227.421 202.387 226.295 204.004 224.652 204.004Z" fill="#3F4350"/>
<path d="M262.916 148.761C286.561 150.527 292.58 157.615 292.58 184.177C292.58 225.476 268.071 229.19 249.589 220.851C231.106 212.52 220.899 205.036 217.415 198.503C214.604 193.236 220.836 198.503 228.002 199.936C229.8 200.293 231.431 201.275 233.094 201.726C270.748 211.958 275.728 196.65 273.575 178.601C271.421 160.553 262.924 148.753 262.924 148.753L262.916 148.761Z" fill="#A37200"/>
<path d="M262.972 148.753C262.972 148.753 269.362 158.563 271.521 176.621C272.999 189.032 265.626 202.558 259.651 204.535C259.493 210.942 258.023 217.302 254.995 222.862C272.491 228.16 292.58 221.595 292.58 184.172C292.58 157.608 286.572 150.519 262.964 148.753H262.972Z" fill="white"/>
<path d="M182.834 238.871H143.495C142.877 238.81 142.299 238.534 141.86 238.089C141.421 237.645 141.149 237.059 141.089 236.434V184.698C141.143 184.065 141.418 183.471 141.865 183.023C142.309 182.574 142.894 182.296 143.519 182.237H172.693L185.325 194.885V236.409C185.332 236.721 185.277 237.031 185.162 237.32C185.048 237.609 184.876 237.871 184.657 238.091C184.164 238.567 183.515 238.844 182.834 238.871Z" fill="black" fill-opacity="0.2"/>
</g>
<path d="M239.398 140.779L246.251 152.846C251.433 152.305 255.115 149.68 260.321 149.505C257.421 145.904 249.553 133.124 248.757 132.114C247.271 130.223 248.966 125.167 248.018 123.545C244.612 117.607 235.574 121.049 233.509 121.55C231.508 122.027 227.66 124.396 227.66 124.396C229.042 128.823 232.007 135.874 236.007 141.033C236.682 141.908 238 141.447 239.398 140.779Z" fill="#A37200"/>
<path d="M230.664 128.29C229.631 132.651 229.026 135.767 229.026 135.767C229.438 137.2 233.81 136.014 233.81 136.014L230.664 128.29Z" fill="#A37200"/>
<path d="M239.689 140.663C240.72 140.096 241.326 139.565 242.128 138.667C242.488 138.257 242.799 138.789 242.66 139.321C242.554 139.731 241.989 140.35 241.244 140.717C240.77 140.952 238.994 141.047 239.689 140.663Z" fill="#6F370B"/>
<path d="M255.206 125.464C254.154 124.542 252.797 123.81 252.291 122.519C251.842 121.361 252.203 120.062 251.962 118.85C251.545 116.763 249.313 115.362 247.145 115.33C244.977 115.299 239.044 117.55 236.739 117.613C234.435 117.669 232.115 117.472 229.842 117.858C227.57 118.243 225.282 119.322 224.15 121.29C223.018 123.259 223.524 126.18 225.587 127.172C227.321 128.007 229.409 127.29 231.047 126.29C232.685 125.29 234.194 123.983 236.065 123.519C237.936 123.054 240.344 123.881 240.697 125.739C240.898 126.802 240.384 127.857 240.224 128.928C240.063 129.999 240.521 131.377 241.613 131.479C242.857 131.597 243.837 129.975 245.041 130.29C246.109 130.574 246.181 131.983 246.398 133.038C246.904 135.534 249.569 137.353 252.155 137.14C254.74 136.928 256.988 134.849 257.566 132.361C258.144 129.873 257.133 127.156 255.198 125.456L255.206 125.464Z" fill="#4A2407"/>
<path d="M281.965 141.911C282.842 140.124 282.818 138.321 282.818 136.366C282.818 135.751 282.937 135.225 283.137 134.754C283.057 134.236 283.001 133.709 282.977 133.182C282.874 131.004 283.472 128.619 285.201 127.294C285.959 126.712 286.883 126.361 287.537 125.675C288.82 124.31 288.605 122.124 287.999 120.353C286.804 116.842 284.364 113.747 281.184 111.84C278.003 109.933 274.089 109.247 270.47 110.053C268.485 110.491 266.62 111.353 264.651 111.864C262.682 112.374 260.49 112.494 258.712 111.505C256.807 110.452 250.98 108.648 248.803 108.553C229.313 107.707 225.415 119.324 224.299 120.879C223.039 122.459 243.375 117.09 245.559 118.286C246.81 116.459 245.814 132.448 247.6 135.121C248.867 137.02 253.443 143.227 261.757 146.251C266.676 146.802 271.65 147.081 276.369 145.733C277.987 145.27 279.621 144.472 281.128 143.443C281.423 142.948 281.71 142.437 281.973 141.911H281.965Z" fill="#4A2407"/>
<path d="M250.187 156.935C255.811 156.817 260.128 153.323 262.512 148.61C258.718 148.221 254.401 148.071 249.49 148.071C245.862 148.071 242.717 148.221 239.96 148.53C241.766 153.173 244.293 157.062 250.179 156.935H250.187Z" fill="#A37200"/>
<path d="M216.873 165.333C216.251 170.717 215.784 176.111 215.459 181.503C215.386 182.777 217.571 182.599 217.645 181.345C217.96 176.122 218.418 170.908 219.02 165.703C219.159 164.444 217.023 164.064 216.873 165.333Z" fill="#FFBC1F"/>
<path d="M234.495 173.999C231.786 177.683 228.804 181.106 225.562 184.299C224.66 185.184 225.967 186.669 226.869 185.784C230.23 182.473 233.309 178.912 236.125 175.09C236.88 174.066 235.241 172.975 234.495 173.999Z" fill="#FFBC1F"/>
<path d="M245.341 193.568C240.736 193.394 236.121 193.21 231.516 193.036C230.455 192.999 230.609 194.984 231.66 195.032C236.265 195.206 240.881 195.389 245.486 195.563C246.546 195.601 246.393 193.616 245.341 193.568Z" fill="#FFBC1F"/>
<path d="M234.855 139.459C235.685 139.235 236.473 138.864 237.176 138.359C237.464 138.149 237.163 137.683 236.87 137.892C236.157 138.411 235.348 138.779 234.495 138.98L234.855 139.459Z" fill="#4A2407"/>
<ellipse cx="233.619" cy="130.299" rx="1.18044" ry="0.785506" transform="rotate(-13.8713 233.619 130.299)" fill="#4A2407"/>
<g clip-path="url(#clip0_2352_4354)">
<path d="M176.94 230.618H137.601C136.983 230.557 136.405 230.281 135.966 229.836C135.527 229.392 135.255 228.806 135.195 228.181V176.445C135.249 175.812 135.524 175.218 135.971 174.77C136.415 174.321 137 174.043 137.625 173.984H166.799L179.431 186.632V228.156C179.438 228.468 179.383 228.778 179.268 229.067C179.154 229.356 178.982 229.618 178.763 229.838C178.269 230.314 177.621 230.591 176.94 230.618Z" fill="#E8E9ED"/>
<path d="M161.361 182.605H140.693C140.58 182.597 140.469 182.566 140.367 182.514C140.266 182.461 140.176 182.388 140.104 182.299C140.032 182.21 139.979 182.107 139.948 181.996C139.916 181.885 139.908 181.769 139.923 181.654C139.923 181.094 140.182 180.814 140.693 180.814H161.361C161.879 180.814 162.137 181.094 162.137 181.654C162.152 181.769 162.144 181.886 162.112 181.997C162.081 182.108 162.027 182.212 161.954 182.301C161.881 182.39 161.791 182.463 161.689 182.516C161.587 182.568 161.476 182.598 161.361 182.605ZM158.155 188.648C158.39 188.648 158.615 188.554 158.781 188.386C158.946 188.218 159.04 187.99 159.04 187.753C159.04 187.515 158.946 187.287 158.781 187.119C158.615 186.951 158.39 186.857 158.155 186.857H140.711C140.494 186.883 140.295 186.988 140.15 187.153C140.004 187.318 139.924 187.532 139.924 187.753C139.924 187.974 140.004 188.187 140.15 188.352C140.295 188.517 140.494 188.623 140.711 188.648H158.155ZM171.858 194.801C171.98 194.812 172.102 194.796 172.218 194.756C172.334 194.716 172.44 194.652 172.53 194.568C172.62 194.484 172.691 194.382 172.741 194.269C172.79 194.155 172.815 194.033 172.815 193.909C172.815 193.785 172.79 193.663 172.741 193.549C172.691 193.436 172.62 193.334 172.53 193.25C172.44 193.166 172.334 193.102 172.218 193.062C172.102 193.022 171.98 193.006 171.858 193.016H140.693C140.481 193.047 140.287 193.154 140.147 193.318C140.007 193.482 139.929 193.692 139.929 193.909C139.929 194.126 140.007 194.335 140.147 194.499C140.287 194.663 140.481 194.771 140.693 194.801H171.858ZM169.873 200.851C170.382 200.851 170.677 200.552 170.757 199.955C170.74 199.723 170.642 199.505 170.48 199.341C170.317 199.177 170.102 199.077 169.873 199.06H140.693C140.58 199.067 140.469 199.098 140.367 199.151C140.266 199.203 140.176 199.276 140.104 199.366C140.032 199.455 139.979 199.558 139.948 199.669C139.916 199.78 139.908 199.896 139.923 200.01C139.923 200.571 140.182 200.851 140.693 200.851H169.873ZM158.155 207.004C158.39 207.004 158.615 206.91 158.781 206.742C158.946 206.574 159.04 206.346 159.04 206.108C159.04 205.871 158.946 205.643 158.781 205.475C158.615 205.307 158.39 205.213 158.155 205.213H140.711C140.494 205.239 140.295 205.344 140.15 205.509C140.004 205.674 139.924 205.887 139.924 206.108C139.924 206.33 140.004 206.543 140.15 206.708C140.295 206.873 140.494 206.978 140.711 207.004H158.155ZM171.858 213.048C172.375 213.048 172.67 212.749 172.742 212.152C172.727 211.92 172.629 211.701 172.466 211.536C172.303 211.371 172.087 211.272 171.858 211.256H140.693C140.58 211.264 140.469 211.295 140.367 211.347C140.266 211.4 140.176 211.473 140.104 211.562C140.032 211.651 139.979 211.755 139.948 211.865C139.916 211.976 139.908 212.093 139.923 212.207C139.923 212.767 140.182 213.048 140.693 213.048H171.858ZM171.858 219.207C172.087 219.19 172.302 219.09 172.465 218.926C172.627 218.761 172.725 218.543 172.742 218.311C172.728 218.078 172.63 217.859 172.467 217.694C172.304 217.529 172.088 217.43 171.858 217.416H140.693C140.476 217.441 140.277 217.547 140.131 217.712C139.986 217.877 139.906 218.09 139.906 218.311C139.906 218.532 139.986 218.746 140.131 218.911C140.277 219.076 140.476 219.181 140.693 219.207H171.858ZM171.858 225.25C172.375 225.25 172.67 224.952 172.742 224.355C172.739 224.243 172.712 224.133 172.665 224.032C172.618 223.931 172.551 223.841 172.468 223.768C172.385 223.694 172.288 223.638 172.183 223.604C172.078 223.57 171.968 223.558 171.858 223.569H140.693C140.182 223.569 139.923 223.849 139.923 224.41C139.923 224.97 140.182 225.25 140.693 225.25H171.858Z" fill="#989DAE"/>
<path d="M166.774 173.984L179.256 186.632H169.421C168.726 186.65 168.051 186.389 167.544 185.907C167.284 185.655 167.08 185.35 166.946 185.011C166.812 184.673 166.752 184.309 166.768 183.945L166.774 173.984Z" fill="#BABEC9"/>
</g>
<path fill-rule="evenodd" clip-rule="evenodd" d="M191.842 63.9509C191.927 62.978 192.785 62.2588 193.758 62.3444C199.364 62.8379 208.192 66.1179 216.812 71.1748C224.27 75.5502 231.793 81.3837 237.094 88.1894L239.664 76.5458C239.875 75.5921 240.819 74.9897 241.772 75.2002C242.726 75.4108 243.328 76.3546 243.118 77.3083L239.687 92.8498C239.476 93.8035 238.532 94.406 237.579 94.1954L222.037 90.7642C221.083 90.5537 220.481 89.6099 220.691 88.6561C220.902 87.7024 221.846 87.1 222.8 87.3106L233.81 89.7415C228.911 83.6761 222.029 78.3358 215.023 74.2254C206.604 69.2863 198.303 66.2951 193.448 65.8676C192.475 65.782 191.756 64.9238 191.842 63.9509Z" fill="#C6C9D2"/>
<path fill-rule="evenodd" clip-rule="evenodd" d="M122.195 218.784C122.233 219.76 121.474 220.583 120.498 220.622C115.681 220.813 107.872 218.994 100.073 215.669C93.498 212.867 86.7069 208.9 81.5376 203.913L80.466 215.83C80.3785 216.802 79.519 217.52 78.5463 217.433C77.5735 217.345 76.8559 216.486 76.9434 215.513L78.3688 199.661C78.4563 198.688 79.3158 197.971 80.2885 198.058L96.1403 199.484C97.1131 199.571 97.8307 200.431 97.7433 201.403C97.6558 202.376 96.7963 203.094 95.8236 203.006L84.6676 202.003C89.3324 206.295 95.4025 209.834 101.46 212.416C109.044 215.649 116.293 217.249 120.357 217.088C121.333 217.049 122.156 217.808 122.195 218.784Z" fill="#C6C9D2"/>
<defs>
<clipPath id="clip0_2352_4354">
<rect width="44.2057" height="56.6333" fill="white" transform="translate(135.171 173.984)"/>
</clipPath>
</defs>
</svg>
