<svg width="292" height="279" viewBox="0 0 292 279" fill="none" xmlns="http://www.w3.org/2000/svg">
<path d="M52.8268 198.718H239.257C240.629 198.699 241.938 198.126 242.896 197.125C243.854 196.124 244.385 194.777 244.371 193.379V66.3971C244.385 64.9986 243.854 63.6515 242.896 62.6508C241.938 61.65 240.629 61.0771 239.257 61.0575H52.8268C51.4556 61.0791 50.1484 61.6526 49.1904 62.6529C48.2324 63.6532 47.7013 64.9992 47.7131 66.3971V193.386C47.7033 194.783 48.2352 196.127 49.193 197.126C50.1507 198.124 51.4569 198.697 52.8268 198.718Z" fill="#3F4350"/>
<path d="M32.2612 216.979C32.2612 223.301 37.3982 229.622 43.6287 229.622H248.463C254.334 229.622 259.823 223.315 259.823 216.979H32.2612Z" fill="#767D93"/>
<path d="M240.86 198.718H51.2241L32.2612 216.98H259.823L240.86 198.718Z" fill="#D1D4DB"/>
<path d="M235.189 200.123H56.8872L50.522 207.849H241.562L235.189 200.123Z" fill="#AFB3C0"/>
<path d="M165.591 210.658H126.501L123.567 214.873H168.517L165.591 210.658Z" fill="#24262E"/>
<g clip-path="url(#clip0_2352_3124)">
<rect width="174.183" height="112.376" transform="translate(58.9507 72.9976)" fill="white"/>
<rect x="58.9507" y="72.9976" width="51.974" height="113.079" fill="#1E325C"/>
<circle opacity="0.32" cx="67.3789" cy="82.1281" r="4.91646" fill="white"/>
<rect opacity="0.32" x="75.8066" y="80.7234" width="23.1776" height="2.10705" rx="1.05353" fill="white"/>
<rect opacity="0.32" x="63.8672" y="93.3657" width="15.4517" height="2.10705" rx="1.05353" fill="white"/>
<rect opacity="0.32" x="63.8672" y="160.792" width="15.4517" height="2.10705" rx="1.05353" fill="white"/>
<ellipse opacity="0.32" cx="66.3249" cy="102.145" rx="2.45823" ry="2.45823" fill="white"/>
<rect opacity="0.32" x="71.5928" y="101.092" width="29.1476" height="2.01666" rx="1.00833" fill="white"/>
<ellipse opacity="0.32" cx="66.3249" cy="127.43" rx="2.45823" ry="2.45823" fill="white"/>
<rect opacity="0.32" x="71.5928" y="126.376" width="28.7964" height="2.10705" rx="1.05353" fill="white"/>
<ellipse opacity="0.32" cx="66.3249" cy="110.573" rx="2.45823" ry="2.45823" fill="white"/>
<rect opacity="0.32" x="71.5928" y="109.52" width="25.2847" height="2.10705" rx="1.05353" fill="white"/>
<ellipse opacity="0.32" cx="66.3249" cy="135.858" rx="2.45823" ry="2.45823" fill="white"/>
<rect opacity="0.32" x="71.5928" y="134.804" width="25.2847" height="2.10706" rx="1.05353" fill="white"/>
<ellipse opacity="0.32" cx="66.3249" cy="119.002" rx="2.45823" ry="2.45823" fill="white"/>
<rect opacity="0.32" x="71.5928" y="117.948" width="33.0105" height="2.10705" rx="1.05353" fill="white"/>
<ellipse opacity="0.32" cx="66.3249" cy="144.286" rx="2.45823" ry="2.45823" fill="white"/>
<rect opacity="0.32" x="71.5928" y="143.233" width="33.0105" height="2.10706" rx="1.05353" fill="white"/>
<ellipse opacity="0.32" cx="66.3249" cy="169.571" rx="2.45823" ry="2.45823" fill="white"/>
<rect opacity="0.32" x="71.5928" y="168.517" width="33.0105" height="2.10705" rx="1.05353" fill="white"/>
<ellipse opacity="0.32" cx="66.3249" cy="152.714" rx="2.45823" ry="2.45823" fill="white"/>
<rect opacity="0.32" x="71.5928" y="151.661" width="21.7729" height="2.10706" rx="1.05353" fill="white"/>
<ellipse cx="120.758" cy="102.496" rx="4.21411" ry="4.21411" fill="#3F4350" fill-opacity="0.24"/>
<rect x="129.186" y="98.9846" width="23.8799" height="2.10705" rx="1.05353" fill="#3F4350" fill-opacity="0.24"/>
<rect x="129.186" y="105.306" width="72.3422" height="1.4047" rx="0.702352" fill="#3F4350" fill-opacity="0.24"/>
<rect x="129.186" y="110.925" width="81.4728" height="1.4047" rx="0.702351" fill="#3F4350" fill-opacity="0.24"/>
<ellipse cx="120.758" cy="131.293" rx="4.21411" ry="4.21411" fill="#3F4350" fill-opacity="0.24"/>
<rect x="129.186" y="127.781" width="23.8799" height="2.10706" rx="1.05353" fill="#3F4350" fill-opacity="0.24"/>
<rect x="129.186" y="134.102" width="72.3422" height="1.4047" rx="0.702352" fill="#3F4350" fill-opacity="0.24"/>
<rect x="129.186" y="139.721" width="81.4728" height="1.4047" rx="0.70235" fill="#3F4350" fill-opacity="0.24"/>
<circle cx="120.758" cy="157.982" r="4.21411" fill="#3F4350" fill-opacity="0.24"/>
<rect x="129.186" y="154.47" width="23.8799" height="2.10706" rx="1.05353" fill="#3F4350" fill-opacity="0.24"/>
<rect x="129.186" y="160.792" width="72.3422" height="1.4047" rx="0.702352" fill="#3F4350" fill-opacity="0.24"/>
<rect x="129.186" y="166.41" width="81.4728" height="1.40469" rx="0.702347" fill="#3F4350" fill-opacity="0.24"/>
<ellipse cx="142.531" cy="82.1282" rx="2.10705" ry="2.10705" fill="#3F4350" fill-opacity="0.24"/>
<ellipse cx="179.755" cy="82.1282" rx="2.10705" ry="2.10705" fill="#3F4350" fill-opacity="0.24"/>
<ellipse cx="215.575" cy="82.1282" rx="2.10706" ry="2.10705" fill="#3F4350" fill-opacity="0.24"/>
<ellipse cx="221.896" cy="82.1282" rx="2.10705" ry="2.10705" fill="#3F4350" fill-opacity="0.24"/>
<ellipse cx="148.15" cy="82.1282" rx="2.10705" ry="2.10705" fill="#3F4350" fill-opacity="0.24"/>
<rect x="116.543" y="81.4258" width="21.7729" height="1.4047" rx="0.702351" fill="#3F4350" fill-opacity="0.24"/>
<rect x="183.969" y="80.7235" width="27.3917" height="2.80941" rx="1.4047" fill="#3F4350" fill-opacity="0.24"/>
</g>
<path d="M146.042 64.5692C146.597 64.5692 147.141 64.734 147.603 65.0427C148.065 65.3514 148.425 65.7902 148.637 66.3035C148.85 66.8169 148.906 67.3817 148.797 67.9267C148.689 68.4717 148.421 68.9723 148.028 69.3652C147.636 69.7581 147.135 70.0256 146.59 70.1341C146.045 70.2425 145.48 70.1868 144.967 69.9742C144.453 69.7615 144.015 69.4014 143.706 68.9394C143.397 68.4774 143.232 67.9343 143.232 67.3786C143.232 66.6335 143.528 65.9189 144.055 65.3921C144.582 64.8652 145.297 64.5692 146.042 64.5692Z" fill="#989DAE"/>
<path d="M162.227 225.408H129.133C127.99 225.408 124.972 225.408 124.972 221.194H166.41C166.41 225.408 163.303 225.408 162.227 225.408Z" fill="#3F4350"/>
<mask id="mask0_2352_3124" style="mask-type:alpha" maskUnits="userSpaceOnUse" x="34" y="61" width="211" height="169">
<path d="M48.0003 79.8632C48.0003 69.4453 56.4456 61 66.8634 61H225.137C235.555 61 244 69.4453 244 79.8632V210.758C244 221.176 235.555 229.621 225.137 229.621H37.1585C34.8575 229.621 33.4131 227.137 34.5511 225.137L45.5322 205.838C47.1498 202.995 48.0003 199.78 48.0003 196.509V186.25V144.5V79.8632Z" fill="#D9D9D9"/>
</mask>
<g mask="url(#mask0_2352_3124)">
<circle cx="243.558" cy="146.358" r="42.4421" fill="black" fill-opacity="0.2"/>
<circle cx="47.011" cy="101.2" r="37.7263" fill="black" fill-opacity="0.2"/>
<circle cx="61.9791" cy="223.2" r="20.0421" fill="black" fill-opacity="0.2"/>
<circle cx="194.979" cy="230.316" r="22.4" fill="black" fill-opacity="0.2"/>
<circle cx="178.442" cy="67.4315" r="33.0105" fill="black" fill-opacity="0.2"/>
</g>
<circle cx="245.558" cy="137.747" r="42.4421" fill="white"/>
<circle cx="245.558" cy="137.747" r="41.8526" stroke="#3F4350" stroke-opacity="0.16" stroke-width="1.17895"/>
<path d="M245.453 110.632C230.537 110.632 218.442 122.792 218.442 137.794C218.442 149.795 226.181 159.977 236.914 163.569C238.264 163.82 238.759 162.98 238.759 162.262C238.759 161.614 238.734 159.475 238.723 157.205C231.208 158.848 229.622 154 229.622 154C228.394 150.86 226.623 150.026 226.623 150.026C224.173 148.34 226.808 148.374 226.808 148.374C229.52 148.566 230.949 151.174 230.949 151.174C233.358 155.326 237.267 154.126 238.809 153.432C239.051 151.676 239.751 150.478 240.524 149.8C234.524 149.112 228.217 146.783 228.217 136.376C228.217 133.41 229.273 130.987 231.001 129.085C230.72 128.401 229.796 125.638 231.262 121.896C231.262 121.896 233.53 121.166 238.692 124.681C240.847 124.079 243.157 123.777 245.453 123.767C247.748 123.777 250.061 124.079 252.219 124.681C257.375 121.166 259.64 121.896 259.64 121.896C261.11 125.638 260.185 128.401 259.905 129.085C261.637 130.987 262.685 133.41 262.685 136.376C262.685 146.808 256.366 149.105 250.351 149.778C251.32 150.621 252.183 152.274 252.183 154.808C252.183 158.442 252.152 161.367 252.152 162.262C252.152 162.985 252.638 163.832 254.007 163.565C264.734 159.969 272.464 149.791 272.464 137.794C272.464 122.792 260.37 110.632 245.453 110.632Z" fill="#161614"/>
<path d="M228.558 149.325C228.499 149.46 228.288 149.501 228.096 149.408C227.9 149.32 227.789 149.136 227.853 149C227.911 148.861 228.123 148.822 228.318 148.916C228.515 149.004 228.626 149.19 228.558 149.325ZM229.887 150.517C229.758 150.638 229.506 150.582 229.335 150.392C229.159 150.203 229.126 149.95 229.256 149.827C229.389 149.708 229.634 149.764 229.811 149.953C229.987 150.145 230.022 150.396 229.887 150.518M230.799 152.043C230.633 152.158 230.362 152.05 230.195 151.808C230.03 151.567 230.03 151.277 230.199 151.161C230.366 151.045 230.633 151.15 230.802 151.389C230.968 151.635 230.968 151.925 230.798 152.043M232.34 153.809C232.192 153.973 231.877 153.93 231.646 153.705C231.41 153.486 231.344 153.176 231.492 153.011C231.642 152.847 231.959 152.893 232.192 153.115C232.426 153.334 232.498 153.647 232.34 153.809M234.332 154.406C234.267 154.619 233.963 154.715 233.657 154.625C233.352 154.532 233.152 154.283 233.214 154.068C233.277 153.854 233.582 153.753 233.89 153.849C234.196 153.942 234.396 154.189 234.332 154.406M236.6 154.659C236.607 154.883 236.348 155.069 236.027 155.073C235.704 155.08 235.442 154.898 235.439 154.678C235.439 154.452 235.693 154.268 236.015 154.263C236.337 154.256 236.6 154.436 236.6 154.659ZM238.827 154.573C238.866 154.792 238.642 155.016 238.323 155.076C238.01 155.133 237.72 154.998 237.68 154.782C237.641 154.558 237.868 154.333 238.181 154.275C238.501 154.219 238.786 154.351 238.827 154.573Z" fill="#161614"/>
<circle cx="52.2947" cy="91.7684" r="37.7263" fill="white"/>
<circle cx="52.2947" cy="91.7684" r="37.1368" stroke="#3F4350" stroke-opacity="0.16" stroke-width="1.17895"/>
<path d="M75.0888 86.9033L75.0225 86.7339L68.6039 69.9828C68.4733 69.6545 68.2421 69.376 67.9434 69.1872C67.6445 69.0017 67.2959 68.9123 66.9446 68.9312C66.5933 68.9501 66.2563 69.0763 65.979 69.2928C65.7048 69.5155 65.5059 69.8173 65.4094 70.1571L61.0755 83.4166H43.5263L39.1925 70.1571C39.0985 69.8155 38.8991 69.5122 38.6228 69.2904C38.3455 69.0738 38.0085 68.9476 37.6572 68.9287C37.3059 68.9099 36.9573 68.9992 36.6584 69.1848C36.3604 69.3743 36.1294 69.6525 35.9979 69.9803L29.5671 86.7241L29.5032 86.8935C28.5792 89.3077 28.4652 91.9569 29.1783 94.4416C29.8913 96.9263 31.3929 99.1118 33.4565 100.669L33.4786 100.686L33.5375 100.728L43.3152 108.05L48.1524 111.711L51.099 113.935C51.4436 114.197 51.8645 114.339 52.2972 114.339C52.73 114.339 53.1508 114.197 53.4955 113.935L56.442 111.711L61.2793 108.05L71.1158 100.683L71.1404 100.664C73.1994 99.1066 74.6974 96.9233 75.4094 94.442C76.1214 91.9606 76.0089 89.3153 75.0888 86.9033Z" fill="#E24329"/>
<path d="M75.0889 86.9034L75.0226 86.734C71.8951 87.376 68.9479 88.7007 66.3917 90.6136L52.2949 101.273C57.0953 104.904 61.2745 108.06 61.2745 108.06L71.1111 100.693L71.1356 100.674C73.1976 99.1166 74.6979 96.9319 75.4109 94.4484C76.1239 91.965 76.0109 89.3171 75.0889 86.9034Z" fill="#FC6D26"/>
<path d="M43.3154 108.059L48.1527 111.721L51.0992 113.945C51.4439 114.207 51.8647 114.349 52.2975 114.349C52.7302 114.349 53.1511 114.207 53.4957 113.945L56.4423 111.721L61.2795 108.059C61.2795 108.059 57.0954 104.894 52.295 101.273C47.4946 104.894 43.3154 108.059 43.3154 108.059Z" fill="#FCA326"/>
<path d="M38.1955 90.6134C35.6414 88.6966 32.6948 87.3684 29.5671 86.724L29.5032 86.8934C28.5792 89.3076 28.4652 91.9568 29.1783 94.4415C29.8913 96.9262 31.3929 99.1117 33.4565 100.669L33.4786 100.686L33.5375 100.727L43.3152 108.05C43.3152 108.05 47.4894 104.894 52.2948 101.263L38.1955 90.6134Z" fill="#FC6D26"/>
<circle cx="67.6207" cy="217.305" r="20.0421" fill="white"/>
<circle cx="67.6207" cy="217.305" r="19.4526" stroke="#3F4350" stroke-opacity="0.16" stroke-width="1.17895"/>
<path d="M80.5851 216.984L68.9076 205.454L67.7761 204.337L58.9856 213.016L54.9658 216.984C54.7651 217.183 54.6523 217.453 54.6523 217.734C54.6523 218.015 54.7651 218.284 54.9658 218.484L62.9968 226.413L67.7761 231.13L76.5654 222.451L76.7023 222.317L80.5851 218.49C80.6858 218.391 80.7656 218.274 80.8201 218.144C80.8746 218.015 80.9027 217.877 80.9027 217.737C80.9027 217.597 80.8746 217.458 80.8201 217.329C80.7656 217.2 80.6858 217.082 80.5851 216.984ZM67.7761 221.695L63.7637 217.734L67.7761 213.772L71.7873 217.734L67.7761 221.695Z" fill="#2684FF"/>
<path d="M67.7765 213.772C66.5146 212.526 65.8032 210.838 65.7978 209.076C65.7923 207.315 66.4932 205.622 67.7474 204.369L58.9678 213.034L63.7459 217.751L67.7765 213.772Z" fill="url(#paint0_linear_2352_3124)"/>
<path d="M71.7985 217.723L67.7764 221.695C69.0431 222.946 69.7546 224.643 69.7546 226.412C69.7546 228.181 69.0431 229.877 67.7764 231.128L76.5802 222.44L71.7985 217.723Z" fill="url(#paint1_linear_2352_3124)"/>
<circle cx="203.158" cy="225.6" r="22.4" fill="white"/>
<circle cx="203.158" cy="225.6" r="21.8105" stroke="#3F4350" stroke-opacity="0.16" stroke-width="1.17895"/>
<path d="M207.649 225.599L205.694 225.889L203.057 226.188L201.351 226.23L199.686 226.178L198.414 225.785L197.287 224.565L196.408 222.073L196.211 221.535L195.043 221.142L194.36 220.015L193.874 218.402L194.412 216.985L195.684 216.54L196.708 217.026L197.194 218.102L197.783 218.009L197.98 217.761L197.783 216.633L197.731 215.217L198.021 213.262L198.011 212.146L198.9 210.719L200.462 209.591L203.192 208.423L206.222 208.867L208.859 210.77L210.079 212.725L210.865 214.141L211.062 217.657L210.472 220.687L209.397 223.376L208.383 224.813" fill="#F0D6B7"/>
<path d="M205.995 234.047L199.014 234.337V235.505L199.604 239.611L199.314 239.952L194.433 238.287L194.092 237.698L193.606 232.176L192.458 228.867L192.209 228.081L196.119 225.392L197.339 224.906L198.414 226.23L199.345 227.057L200.421 227.398L200.907 227.543L201.496 230.087L201.941 230.625L203.068 230.232L202.282 231.752L206.522 233.758L205.995 234.047" fill="#335061"/>
<path d="M194.412 217.005L195.684 216.561L196.708 217.047L197.194 218.122L197.783 218.029L197.928 217.44L197.638 216.313L197.928 213.624L197.68 212.156L198.559 211.132L200.461 209.622L199.924 208.888L197.235 210.211L196.108 211.091L195.477 212.455L194.505 213.779L194.215 215.341L194.412 217.005Z" fill="#6D6B6D"/>
<path d="M196.418 212.414C196.418 212.414 197.152 210.605 200.079 209.726C203.005 208.847 200.224 209.095 200.224 209.095L197.049 210.315L195.829 211.535L195.291 212.507L196.418 212.414ZM194.95 216.664C194.95 216.664 193.926 213.241 197.835 212.756L197.69 212.166L195.001 212.797L194.215 215.341L194.412 217.006L194.95 216.664Z" fill="#DCD9D8"/>
<path d="M196.511 221.204L197.152 220.584C197.152 220.584 197.442 220.615 197.493 220.956C197.545 221.297 197.69 224.379 199.789 226.033C199.986 226.188 198.228 225.785 198.228 225.785L196.666 223.345M205.498 220.273C205.498 220.273 205.611 218.795 206.015 218.908C206.418 219.022 206.418 219.425 206.418 219.425C206.418 219.425 205.446 220.046 205.498 220.273ZM209.551 214.855C209.551 214.855 208.745 215.02 208.672 215.734C208.6 216.447 209.551 215.879 209.696 215.827M203.647 214.907C203.647 214.907 202.571 215.051 202.571 215.734C202.571 216.416 203.791 216.365 204.133 216.075M197.007 218.081C197.007 218.081 195.156 216.954 194.96 218.03C194.763 219.105 194.329 219.88 195.249 221.008L194.618 220.811L194.029 219.301L193.833 217.833L194.96 216.664L196.232 216.758L196.966 217.347L197.007 218.081M197.886 215C197.886 215 198.714 210.698 202.912 209.871C206.366 209.188 208.186 210.015 208.869 210.801C208.869 210.801 205.787 207.141 202.86 208.257C199.934 209.385 197.783 211.432 197.835 212.745C197.917 215 197.886 215 197.886 215M209.21 211.287C209.21 211.287 207.793 211.236 207.742 212.507C207.742 212.507 207.742 212.704 207.835 212.9C207.835 212.9 208.962 211.628 209.645 212.311" fill="#F7E4CD"/>
<path d="M203.016 213.035C203.016 213.035 202.768 211.091 201.113 212.218C200.038 212.952 200.141 213.976 200.327 214.172C200.524 214.369 200.472 214.762 200.617 214.493C200.761 214.224 200.72 213.345 201.258 213.097C201.785 212.849 202.675 212.58 203.016 213.035Z" fill="#F7E4CD"/>
<path d="M198.425 226.23L193.833 228.277C193.833 228.277 195.736 235.847 194.764 238.194L194.081 237.946L194.03 235.061L192.758 229.601L192.22 228.091L197.008 224.865L198.425 226.23M198.89 230.418L199.542 231.214V234.14H198.766C198.766 234.14 198.673 232.093 198.673 231.845C198.673 231.596 198.766 230.718 198.766 230.718M198.911 234.585L196.708 234.678L197.339 235.123L198.9 235.371" fill="#49728B"/>
<path d="M206.429 234.099L208.238 234.047L208.683 238.535L206.832 238.783L206.429 234.099" fill="#335061"/>
<path d="M206.915 234.099L209.645 233.954C209.645 233.954 210.772 231.121 210.772 230.976C210.772 230.831 211.744 226.871 211.744 226.871L209.541 224.575L209.097 224.182L207.928 225.351V229.89L206.915 234.099Z" fill="#335061"/>
<path d="M208.135 233.758L206.429 234.099L206.677 235.464C207.308 235.754 208.383 234.978 208.383 234.978M208.187 225.206L211.61 227.75L211.703 226.581L209.118 224.193L208.187 225.206" fill="#49728B"/>
<path d="M200.606 243.716L199.592 239.611L199.086 236.581L199.003 234.337L203.584 234.089H206.428L206.17 239.218L206.614 243.178L206.563 243.913L202.85 244.202L200.606 243.716Z" fill="white"/>
<path d="M205.798 234.047C205.798 234.047 205.55 239.125 206.284 242.744C206.284 242.744 204.816 243.675 202.675 243.912L206.78 243.768L207.266 243.478L206.677 235.474L206.522 233.758" fill="#DCD9D8"/>
<path d="M208.755 238.153L210.658 237.615L214.267 237.419L214.805 235.754L213.833 232.869L212.706 232.724L211.144 233.21L209.655 233.944L208.859 233.799L208.238 234.048" fill="white"/>
<path d="M208.724 237.17C208.724 237.17 209.996 236.581 210.193 236.633L209.655 233.944L210.286 233.696C210.286 233.696 210.73 236.24 210.73 236.529C210.73 236.529 213.461 236.674 213.709 236.674C213.709 236.674 214.298 235.547 214.153 234.378L214.691 235.94L214.743 236.819L213.957 237.987L213.078 238.184L211.609 238.132L211.123 237.501L209.417 237.749L208.879 237.946" fill="#DCD9D8"/>
<path d="M206.801 233.706L205.725 230.976L204.598 229.363C204.598 229.363 204.846 228.68 205.188 228.68H206.315L207.39 229.073L207.297 230.883L206.801 233.706Z" fill="white"/>
<path d="M207.018 232.775C207.018 232.775 205.653 230.138 205.653 229.745C205.653 229.745 205.901 229.156 206.242 229.301C206.583 229.446 207.318 229.839 207.318 229.839V228.908L205.653 228.567L204.525 228.711L206.428 233.22L206.821 233.272" fill="#DCD9D8"/>
<path d="M201.041 226.333L199.686 226.188L198.414 225.795V226.24L199.034 226.922L200.989 227.801" fill="white"/>
<path d="M198.859 226.478C198.859 226.478 200.368 227.109 200.865 226.964L200.916 227.553L199.551 227.264L198.724 226.674L198.859 226.478Z" fill="#DCD9D8"/>
<path d="M208.756 228.846C207.928 228.825 207.173 228.722 206.522 228.536C206.563 228.267 206.48 228.008 206.553 227.812C206.739 227.677 207.039 227.677 207.318 227.646C207.08 227.533 206.739 227.481 206.47 227.553C206.46 227.367 206.377 227.253 206.325 227.109C206.791 226.943 207.887 225.857 208.507 226.209C208.807 226.385 208.931 227.357 208.952 227.843C208.973 228.236 208.911 228.629 208.756 228.846Z" fill="#D33833"/>
<path d="M204.794 227.491C204.794 227.553 204.794 227.615 204.784 227.677C204.525 227.843 204.112 227.843 203.822 227.988C204.236 228.008 204.567 228.112 204.856 228.246C204.846 228.401 204.846 228.567 204.836 228.722C204.36 229.042 203.926 229.528 203.367 229.839C203.098 229.983 202.178 230.356 201.899 230.283C201.744 230.242 201.723 230.045 201.661 229.859C201.526 229.466 201.216 228.825 201.185 228.225C201.154 227.471 201.071 226.199 201.888 226.354C202.55 226.478 203.315 226.778 203.822 227.057C204.143 227.243 204.319 227.45 204.794 227.491Z" fill="#D33833"/>
<path d="M205.26 228.391C205.188 227.977 205.105 227.863 205.136 227.501C206.243 226.767 206.439 228.763 205.26 228.391" fill="#D33833"/>
<path d="M206.853 228.722C206.853 228.722 206.511 228.236 206.76 228.091C207.008 227.946 207.246 228.091 207.39 227.843C207.535 227.594 207.39 227.45 207.442 227.16C207.494 226.871 207.732 226.819 207.98 226.767C208.228 226.715 208.911 226.622 209.004 226.86L208.714 225.981L208.125 225.785L206.274 226.86L206.181 227.398V228.473M201.723 230.335C201.661 229.57 201.599 228.815 201.537 228.049C201.434 226.912 201.806 227.108 202.799 227.108C202.954 227.108 203.73 227.284 203.781 227.398C204.05 227.946 203.337 227.822 204.091 228.236C204.722 228.577 205.85 228.029 205.591 227.253C205.446 227.077 204.846 227.202 204.629 227.088L203.481 226.498C202.995 226.25 201.878 225.878 201.361 226.229C200.048 227.119 201.444 229.352 201.909 230.283" fill="#EF3D3A"/>
<path d="M203.016 213.035C201.682 212.724 201.02 213.593 200.617 214.493C200.255 214.41 200.4 213.914 200.493 213.666C200.73 213.014 201.692 212.135 202.478 212.259C202.809 212.301 203.264 212.611 203.016 213.035ZM209.5 214.544H209.562C209.862 215.165 210.12 215.827 210.503 216.385C210.245 216.985 208.58 217.502 208.6 216.447C208.962 216.292 209.583 216.416 209.903 216.209C209.717 215.703 209.459 215.268 209.5 214.545M203.688 214.565C203.978 215.093 204.071 215.641 204.474 216.034C204.66 216.209 205.012 216.427 204.836 216.923C204.795 217.037 204.495 217.295 204.319 217.347C203.688 217.533 202.209 217.388 202.706 216.592C203.233 216.613 203.936 216.933 204.329 216.551C204.029 216.075 203.492 215.124 203.688 214.565ZM209.262 219.88C208.311 220.49 207.245 221.163 205.674 221.008C205.343 220.718 205.208 220.066 205.539 219.643C205.705 219.932 205.601 220.47 206.077 220.552C206.966 220.708 208 220.004 208.642 219.767C209.035 219.095 208.611 218.857 208.249 218.422C207.514 217.543 206.542 216.447 206.573 215.134C206.873 214.917 206.894 215.465 206.935 215.558C207.318 216.447 208.28 217.595 208.973 218.36C209.148 218.546 209.428 218.733 209.459 218.857C209.552 219.208 209.221 219.642 209.262 219.88M196.666 219.239C196.366 219.063 196.294 218.319 195.942 218.298C195.436 218.267 195.529 219.27 195.529 219.86C195.187 219.55 195.125 218.577 195.374 218.081C195.084 217.936 194.96 218.236 194.794 218.34C195.012 216.84 196.997 217.647 196.666 219.239M209.862 220.511C209.417 221.359 208.786 222.29 207.483 222.321C207.452 222.052 207.432 221.628 207.483 221.463C208.487 221.359 209.107 220.852 209.862 220.511ZM203.616 221.059C204.443 221.494 205.974 221.545 207.111 221.514C207.173 221.762 207.173 222.073 207.173 222.373C205.715 222.435 203.998 222.073 203.616 221.059ZM203.461 221.866C204.04 223.314 206.015 223.148 207.68 223.107C207.608 223.293 207.452 223.52 207.246 223.593C206.708 223.81 205.239 223.975 204.495 223.582C204.029 223.334 203.719 222.765 203.461 222.435C203.347 222.279 202.726 221.876 203.461 221.866Z" fill="#231F20"/>
<path d="M209.19 229.839C208.517 230.997 207.866 232.186 207.07 233.199C207.401 232.217 207.545 230.562 207.597 229.301C208.3 228.97 208.9 229.373 209.19 229.839" fill="#81B0C4"/>
<path d="M212.819 233.996C212.065 234.151 211.537 234.885 210.792 234.833C211.206 234.265 211.909 234.016 212.819 233.996ZM213.15 235.175C212.53 235.237 211.806 235.34 211.186 235.288C211.485 234.833 212.623 234.999 213.15 235.175ZM213.368 236.198C212.675 236.209 211.816 236.198 211.154 236.147C211.547 235.723 212.923 235.991 213.368 236.198Z" fill="#231F20"/>
<path d="M207.886 238.99C207.99 239.859 208.331 240.738 208.29 241.689C207.907 241.813 207.69 241.927 207.173 241.927C207.142 241.12 207.028 239.88 207.059 239.104C207.307 239.125 207.679 238.928 207.886 238.99Z" fill="#DCD9D8"/>
<path d="M206.77 226.168C206.418 226.395 206.128 226.674 205.787 226.923C205.043 226.964 204.639 226.871 204.102 226.447C204.112 226.416 204.164 226.426 204.164 226.385C204.96 226.737 205.973 226.24 206.77 226.168" fill="#F0D6B7"/>
<path d="M202.612 231.576C202.83 230.635 203.688 230.138 204.463 229.621C205.26 230.635 205.746 231.938 206.284 233.199C205.012 232.817 203.719 232.207 202.612 231.576Z" fill="#81B0C4"/>
<path d="M207.06 239.114C207.029 239.89 207.132 241.121 207.173 241.937C207.691 241.937 207.908 241.824 208.29 241.7C208.332 240.748 207.99 239.869 207.887 239.001C207.68 238.928 207.308 239.125 207.06 239.114ZM199.076 234.73C199.417 237.842 199.903 240.448 200.803 243.209C202.799 243.819 205.198 243.871 206.967 243.323C206.646 241.772 206.78 239.88 206.594 238.215C206.449 236.963 206.522 235.712 206.325 234.44C204.185 233.996 201.165 234.337 199.076 234.73ZM206.832 234.461C206.811 235.795 206.894 237.119 206.998 238.453C207.515 238.38 207.856 238.328 208.332 238.215C208.177 236.932 208.197 235.474 207.877 234.337C207.515 234.347 207.194 234.337 206.832 234.461V234.461ZM209.428 234.244C209.18 234.192 208.9 234.244 208.673 234.244C208.787 235.33 209.045 236.529 209.138 237.677C209.5 237.687 209.697 237.512 209.997 237.46C210.017 236.457 209.914 235.071 209.428 234.244ZM213.368 237.842C214.133 237.656 214.609 236.726 214.392 235.764C214.247 235.123 213.999 233.903 213.72 233.489C213.523 233.189 212.975 232.786 212.53 233.065C211.817 233.52 210.565 233.654 210.048 234.202C210.307 235.071 210.39 236.25 210.493 237.346C211.382 237.398 212.468 237.098 213.213 237.418C212.696 237.584 212.034 237.584 211.589 237.832C211.962 238.008 212.81 237.977 213.368 237.843V237.842ZM206.274 233.199C205.736 231.938 205.25 230.635 204.454 229.621C203.678 230.138 202.83 230.635 202.603 231.576C203.719 232.207 205.012 232.817 206.274 233.199ZM207.597 229.301C207.546 230.562 207.401 232.217 207.07 233.199C207.866 232.176 208.518 230.997 209.19 229.839C208.9 229.373 208.301 228.97 207.597 229.301L207.597 229.301ZM206.098 228.774C205.798 228.742 205.54 229.125 205.146 228.96C205.053 229.063 204.971 229.166 204.878 229.27C205.746 230.325 206.15 231.814 206.822 233.044C207.184 231.855 207.142 230.562 207.225 229.27C206.729 229.291 206.45 228.805 206.098 228.773V228.774ZM205.136 227.502C205.105 227.863 205.188 227.977 205.26 228.391C206.439 228.763 206.243 226.767 205.136 227.502ZM203.823 227.067C203.316 226.788 202.551 226.488 201.889 226.364C201.072 226.209 201.155 227.481 201.186 228.236C201.217 228.835 201.527 229.466 201.661 229.87C201.724 230.056 201.744 230.252 201.899 230.294C202.179 230.356 203.109 229.994 203.368 229.849C203.926 229.549 204.361 229.063 204.836 228.732C204.847 228.577 204.847 228.412 204.857 228.256C204.567 228.112 204.247 228.019 203.823 227.998C204.102 227.853 204.526 227.853 204.785 227.688C204.785 227.626 204.785 227.564 204.795 227.502C204.319 227.45 204.143 227.243 203.823 227.067ZM198.962 226.188C198.538 226.623 200.152 227.202 200.658 227.233C200.658 226.964 200.813 226.705 200.782 226.509C200.172 226.405 199.376 226.478 198.962 226.188ZM204.175 226.385C204.175 226.426 204.123 226.416 204.112 226.447C204.661 226.871 205.064 226.964 205.798 226.922C206.129 226.685 206.429 226.395 206.78 226.168C205.974 226.24 204.96 226.736 204.174 226.385H204.175ZM208.952 227.833C208.932 227.357 208.807 226.374 208.507 226.199C207.887 225.837 206.791 226.933 206.325 227.098C206.377 227.243 206.46 227.357 206.47 227.543C206.75 227.471 207.08 227.522 207.318 227.636C207.039 227.667 206.739 227.667 206.553 227.801C206.491 227.998 206.574 228.256 206.522 228.525C207.173 228.711 207.928 228.805 208.756 228.835C208.911 228.629 208.973 228.236 208.952 227.833ZM198.249 226.602C198.114 226.509 197.215 225.34 197.091 225.392C195.467 226.033 193.947 227.14 192.592 228.194C193.885 230.976 194.412 234.378 194.505 237.656C195.984 238.349 197.287 239.352 199.304 239.456C199.066 237.811 198.859 236.333 198.725 234.781C198.218 234.564 197.494 234.792 197.018 234.719C197.018 234.151 197.742 234.471 197.804 234.089C197.845 233.799 197.401 233.778 197.546 233.323C197.918 233.458 198.114 233.758 198.507 233.872C198.869 233.086 198.507 231.69 198.559 231.028C198.569 230.904 198.621 230.345 198.9 230.438C199.148 230.521 198.89 231.938 198.911 232.558C198.931 233.137 198.838 233.685 199.076 234.047C201.02 233.778 202.996 233.613 205.105 233.551C204.64 233.355 204.092 233.168 203.492 232.827C203.161 232.641 202.137 232.258 202.044 231.948C201.889 231.452 202.437 231.193 202.53 230.769C201.548 231.307 201.362 230.252 201.124 229.518C200.917 228.846 200.793 228.339 200.741 227.957C199.883 227.522 198.973 227.119 198.249 226.602ZM208.094 225.526C209.449 224.875 209.697 227.977 209.159 228.98C209.242 229.28 209.521 229.394 209.635 229.663C208.88 231.017 208.042 232.279 207.266 233.613C207.835 233.251 208.663 233.551 209.335 233.282C209.583 233.189 209.759 232.62 209.945 232.165C210.462 230.924 211 229.353 211.238 228.174C211.289 227.905 211.444 227.315 211.403 227.078C211.341 226.643 210.762 226.323 210.462 226.064C209.914 225.568 209.573 225.144 208.993 224.679C208.776 225.02 208.28 225.247 208.094 225.527V225.526ZM195.157 213.521C194.515 214.234 194.65 215.558 194.722 216.509C195.891 215.775 197.432 216.571 197.421 217.812C197.98 217.802 197.628 217.119 197.525 216.675C197.194 215.237 198.083 213.686 197.566 212.373C196.563 212.456 195.746 212.859 195.157 213.521V213.521ZM199.769 209.395C198.311 209.808 196.439 210.873 195.839 212.187C196.305 212.114 196.625 211.887 197.08 211.856C197.256 211.845 197.484 211.928 197.68 211.877C198.073 211.773 198.414 210.884 198.714 210.553C199.004 210.232 199.355 210.088 199.593 209.798C199.748 209.726 199.976 209.726 199.986 209.498C199.924 209.426 199.852 209.374 199.769 209.395ZM207.37 209.788C205.85 208.929 203.285 208.288 201.672 209.095C200.369 209.746 198.611 210.822 198.011 212.176C198.569 213.49 197.845 214.689 197.794 216.023C197.773 216.737 198.125 217.347 198.156 218.122C197.959 218.443 197.38 218.474 196.977 218.453C196.842 217.771 196.605 217.006 195.901 216.923C194.908 216.809 194.174 217.636 194.133 218.495C194.081 219.508 194.908 221.183 196.087 221.07C196.542 221.028 196.656 220.573 197.153 220.573C197.421 221.111 196.739 221.276 196.667 221.659C196.646 221.762 196.718 222.145 196.77 222.331C196.987 223.21 197.463 224.358 197.928 225.03C198.528 225.888 199.697 226.012 200.958 226.095C201.186 225.609 202.013 225.651 202.551 225.775C201.899 225.516 201.3 224.896 200.803 224.348C200.234 223.717 199.655 223.045 199.624 222.217C200.71 223.717 201.599 225.03 203.564 225.692C205.053 226.188 206.791 225.464 207.939 224.658C208.414 224.327 208.694 223.789 209.035 223.313C210.297 221.494 210.886 218.908 210.762 216.395C210.71 215.361 210.71 214.327 210.359 213.634C209.997 212.911 208.766 212.249 208.042 212.911C207.908 212.197 208.642 211.763 209.5 212.021C208.89 211.225 208.249 210.284 207.37 209.788ZM210.203 233.168C211.393 232.579 213.606 231.586 214.34 233.168C214.619 233.758 214.94 234.74 215.074 235.35C215.271 236.198 214.857 237.998 213.978 238.277C213.202 238.525 212.303 238.515 211.372 238.328C211.258 238.235 211.145 238.08 211.052 237.915C210.39 237.894 209.759 237.946 209.242 238.225C209.293 238.721 208.962 238.794 208.642 238.897C208.414 239.818 209.107 241.017 208.942 241.844C208.828 242.444 208.094 242.537 207.556 242.641C207.535 242.972 207.577 243.251 207.618 243.53C207.494 243.985 206.946 244.243 206.419 244.306C204.692 244.512 202.075 244.605 200.421 244.006C199.955 242.868 199.593 241.493 199.21 240.2C197.597 240.376 196.284 239.507 195.053 238.928C194.629 238.732 194.04 238.618 193.874 238.277C193.719 237.946 193.781 237.315 193.74 236.726C193.647 235.206 193.554 233.737 193.161 232.186C192.985 231.483 192.664 230.873 192.447 230.201C192.24 229.58 191.889 228.805 191.796 228.184C191.661 227.264 192.53 227.212 193.078 226.809C193.936 226.188 194.609 225.847 195.539 225.289C195.819 225.123 196.646 224.71 196.739 224.513C196.925 224.131 196.418 223.593 196.284 223.293C196.067 222.817 195.953 222.414 195.922 221.948C195.146 221.824 194.547 221.359 194.195 220.842C193.605 219.973 193.192 218.371 193.709 217.161C193.75 217.068 193.947 216.871 193.978 216.726C194.04 216.437 193.864 216.054 193.854 215.744C193.802 214.162 194.123 212.797 195.188 212.321C195.622 210.594 197.173 210.026 198.631 209.167C199.18 208.847 199.779 208.64 200.4 208.412C202.623 207.595 206.046 207.75 207.897 209.146C208.683 209.736 209.935 210.987 210.379 211.897C211.568 214.286 211.476 218.288 210.648 221.204C210.534 221.597 210.379 222.166 210.152 222.641C209.997 222.972 209.511 223.624 209.562 223.913C209.624 224.213 210.679 225.009 210.907 225.227C211.31 225.619 212.086 226.137 212.148 226.633C212.22 227.16 211.92 227.884 211.765 228.391C211.269 230.087 210.772 231.648 210.203 233.168Z" fill="#231F20"/>
<path d="M202.292 221.421C202.354 221.338 202.705 221.204 203.202 221.442C203.202 221.442 202.612 221.535 202.664 222.517L202.416 222.466C202.426 222.476 202.167 221.587 202.292 221.421Z" fill="#F7E4CD"/>
<path d="M206.573 229.818C206.573 229.963 206.449 230.087 206.305 230.087C206.16 230.087 206.036 229.963 206.036 229.818C206.036 229.673 206.16 229.549 206.305 229.549C206.46 229.549 206.573 229.673 206.573 229.818ZM206.842 231.069C206.842 231.214 206.718 231.338 206.573 231.338C206.429 231.338 206.305 231.214 206.305 231.069C206.305 230.924 206.429 230.8 206.573 230.8C206.729 230.8 206.842 230.914 206.842 231.069Z" fill="#1D1919"/>
<circle cx="183.726" cy="58" r="33.0105" fill="white"/>
<circle cx="183.726" cy="58" r="32.4211" stroke="#3F4350" stroke-opacity="0.16" stroke-width="1.17895"/>
<path d="M183.726 79.221C195.446 79.221 204.947 69.72 204.947 58C204.947 46.2799 195.446 36.7789 183.726 36.7789C172.006 36.7789 162.505 46.2799 162.505 58C162.505 69.72 172.006 79.221 183.726 79.221Z" fill="#4A8CFF"/>
<path d="M170.11 51.3561V61.3287C170.115 62.4104 170.55 63.4457 171.318 64.2072C172.086 64.9686 173.125 65.394 174.207 65.3897H188.743C188.94 65.3906 189.129 65.3136 189.269 65.1755C189.408 65.0374 189.488 64.8494 189.489 64.6529V54.6803C189.484 53.5987 189.049 52.5633 188.281 51.8019C187.513 51.0404 186.474 50.6151 185.392 50.6194H170.86C170.762 50.6183 170.665 50.6365 170.575 50.673C170.484 50.7095 170.402 50.7635 170.332 50.8319C170.262 50.9004 170.207 50.9819 170.169 51.0719C170.131 51.1618 170.111 51.2584 170.11 51.3561ZM190.415 55.2463L196.416 50.8619C196.937 50.4298 197.341 50.5385 197.341 51.3201V64.6889C197.341 65.5783 196.847 65.4705 196.416 65.1462L190.415 60.7717V55.2463Z" fill="white"/>
<defs>
<linearGradient id="paint0_linear_2352_3124" x1="67.0581" y1="209.764" x2="61.5264" y2="215.365" gradientUnits="userSpaceOnUse">
<stop offset="0.18" stop-color="#0052CC"/>
<stop offset="1" stop-color="#2684FF"/>
</linearGradient>
<linearGradient id="paint1_linear_2352_3124" x1="68.542" y1="225.656" x2="74.0629" y2="220.065" gradientUnits="userSpaceOnUse">
<stop offset="0.18" stop-color="#0052CC"/>
<stop offset="1" stop-color="#2684FF"/>
</linearGradient>
<clipPath id="clip0_2352_3124">
<rect width="174.183" height="112.376" fill="white" transform="translate(58.9507 72.9976)"/>
</clipPath>
</defs>
</svg>
