<svg width="12" height="12" viewBox="0 0 12 12" fill="none" xmlns="http://www.w3.org/2000/svg">
<path fill-rule="evenodd" clip-rule="evenodd" d="M11.741 0.94697L11.045 0.25L6.00322 5.29928L0.94697 0.250504L0.25 0.946443L5.30728 5.99625L0.257991 11.053L0.953929 11.75L6.00425 6.69219L11.053 11.7335L11.75 11.0376L6.70019 5.99522L11.741 0.94697Z" fill="black"/>
<path d="M11.045 0.25L11.1689 0.126348L11.045 0.00232901L10.9212 0.126348L11.045 0.25ZM11.741 0.94697L11.8648 1.07062L11.9883 0.94697L11.8648 0.823318L11.741 0.94697ZM6.00322 5.29928L5.87957 5.42312L6.0034 5.54677L6.12706 5.42293L6.00322 5.29928ZM0.94697 0.250504L1.07062 0.126669L0.94697 0.00319973L0.823318 0.126669L0.94697 0.250504ZM0.25 0.946443L0.126348 0.822608L0.00232933 0.946443L0.126348 1.07028L0.25 0.946443ZM5.30728 5.99625L5.43112 6.1199L5.55477 5.99607L5.43094 5.87241L5.30728 5.99625ZM0.257991 11.053L0.134156 10.9294L0.0106868 11.053L0.134156 11.1767L0.257991 11.053ZM0.953929 11.75L0.830093 11.8737L0.953929 11.9977L1.07776 11.8737L0.953929 11.75ZM6.00425 6.69219L6.1279 6.56835L6.00407 6.4447L5.88042 6.56854L6.00425 6.69219ZM11.053 11.7335L10.9294 11.8573L11.053 11.9808L11.1767 11.8573L11.053 11.7335ZM11.75 11.0376L11.8737 11.1614L11.9977 11.0376L11.8737 10.9137L11.75 11.0376ZM6.70019 5.99522L6.57635 5.87157L6.4527 5.9954L6.57654 6.11905L6.70019 5.99522ZM10.9212 0.373652L11.6171 1.07062L11.8648 0.823318L11.1689 0.126348L10.9212 0.373652ZM6.12706 5.42293L11.1689 0.373652L10.9212 0.126348L5.87939 5.17563L6.12706 5.42293ZM0.823318 0.374339L5.87957 5.42312L6.12687 5.17544L1.07062 0.126669L0.823318 0.374339ZM0.373652 1.07028L1.07062 0.374339L0.823318 0.126669L0.126348 0.822608L0.373652 1.07028ZM5.43094 5.87241L0.373652 0.822608L0.126348 1.07028L5.18363 6.12008L5.43094 5.87241ZM0.381826 11.1767L5.43112 6.1199L5.18345 5.8726L0.134156 10.9294L0.381826 11.1767ZM1.07776 11.6263L0.381826 10.9294L0.134156 11.1767L0.830093 11.8737L1.07776 11.6263ZM5.88042 6.56854L0.830093 11.6263L1.07776 11.8737L6.12809 6.81584L5.88042 6.56854ZM11.1767 11.6097L6.1279 6.56835L5.8806 6.81602L10.9294 11.8573L11.1767 11.6097ZM11.6263 10.9137L10.9294 11.6097L11.1767 11.8573L11.8737 11.1614L11.6263 10.9137ZM6.57654 6.11905L11.6263 11.1614L11.8737 10.9137L6.82384 5.87138L6.57654 6.11905ZM11.6171 0.823318L6.57635 5.87157L6.82402 6.11887L11.8648 1.07062L11.6171 0.823318Z" fill="black"/>
</svg>
