<?xml version="1.0" encoding="utf-8"?>
<!-- Generator: Adobe Illustrator 26.0.3, SVG Export Plug-In . SVG Version: 6.00 Build 0)  -->
<svg version="1.1" id="Mattermost" xmlns="http://www.w3.org/2000/svg" xmlns:xlink="http://www.w3.org/1999/xlink" x="0px" y="0px"
	 viewBox="0 0 30 30" style="enable-background:new 0 0 30 30;" xml:space="preserve">
<style type="text/css">
	.st0{fill:#1E325C;}
	.st1{fill-rule:evenodd;clip-rule:evenodd;fill:#FFFFFF;}
</style>
<path class="st0" d="M5.8,0.5h18.3c2.9,0,5.3,2.4,5.3,5.3v18.3c0,2.9-2.4,5.3-5.3,5.3H5.8c-2.9,0-5.3-2.4-5.3-5.3V5.8
	C0.5,2.9,2.9,0.5,5.8,0.5z"/>
<g>
	<path class="st1" d="M21,6.7l0.1,2.2c1.8,1.9,2.5,4.7,1.6,7.3c-1.3,3.9-5.6,5.9-9.7,4.5c-4-1.4-6.2-5.6-4.9-9.5
		c0.9-2.6,3.1-4.4,5.7-4.8l1.4-1.7c-4.4-0.1-8.5,2.6-10,7c-1.8,5.4,1.1,11.2,6.4,13c5.4,1.8,11.2-1.1,13-6.4
		C26.2,13.9,24.6,9.3,21,6.7"/>
	<path class="st1" d="M18.5,13.1l-0.1-3l-0.1-1.8l0-1.5c0,0,0-0.7,0-0.9c0,0,0-0.1,0-0.1c0,0,0,0,0,0c0,0,0,0,0,0
		c0,0-0.1-0.1-0.1-0.1c-0.1,0-0.1,0-0.2,0c0,0,0,0,0,0c0,0,0,0,0,0c0,0-0.1,0-0.1,0.1c-0.1,0.1-0.6,0.7-0.6,0.7l-1,1.2L15.3,9
		l-1.9,2.4c0,0-0.9,1.1-0.7,2.4c0.2,1.3,1.2,2,2,2.3c0.8,0.3,2,0.3,2.9-0.6C18.5,14.5,18.5,13.1,18.5,13.1"/>
</g>
</svg>
