<svg xmlns="http://www.w3.org/2000/svg" xmlns:svg="http://www.w3.org/2000/svg" style="enable-background:new 0 0 500 500" id="svg2" x="0" y="0" version="1.1" viewBox="0 0 500 500" xml:space="preserve"><metadata id="metadata14"/><defs id="defs12"><clipPath id="clipPath4148" clipPathUnits="userSpaceOnUse"><g id="g4150" transform="matrix(0.99998928,0,0,0.99998928,-0.01497322,0.02529433)" style="fill:#000;fill-opacity:.70196078;stroke:none"><g id="g4152" style="fill:#000;fill-opacity:.70196078;stroke:none"><path id="path4154" d="m 396.9,47.7 2.6,53.1 c 43,47.5 60,114.8 38.6,178.1 C 406.1,373.3 300.7,423 202.7,389.8 104.7,356.6 51.1,253.1 83,158.7 104.5,95.2 159.2,52 222.5,40.5 L 256.7,0.1 C 150,-2.8 49.3,63.4 13.3,169.9 -31,300.6 39.1,442.5 169.9,486.7 300.7,530.9 442.5,460.9 486.8,330.1 522.7,223.9 483.1,110.3 396.9,47.7 Z" class="st0" style="clip-rule:evenodd;fill:#000;fill-opacity:.70196078;fill-rule:evenodd;stroke:none"/></g><path id="path4156" d="m 335.6,204.3 -1.8,-74.2 -1.5,-42.7 -1,-37 c 0,0 0.2,-17.8 -0.4,-22 -0.1,-0.9 -0.4,-1.6 -0.7,-2.2 0,-0.1 -0.1,-0.2 -0.1,-0.3 0,-0.1 -0.1,-0.2 -0.1,-0.2 -0.7,-1.2 -1.8,-2.1 -3.1,-2.6 -1.4,-0.5 -2.9,-0.4 -4.2,0.2 0,0 -0.1,0 -0.1,0 -0.2,0.1 -0.3,0.1 -0.4,0.2 -0.6,0.3 -1.2,0.7 -1.8,1.3 -3,3 -13.7,17.2 -13.7,17.2 l -23.2,28.8 -27.1,33 -46.5,57.8 c 0,0 -21.3,26.6 -16.6,59.4 4.7,32.8 29.1,48.7 48,55.1 18.9,6.4 48,8.5 71.6,-14.7 23.5,-23 22.7,-57.1 22.7,-57.1 z" class="st0" style="clip-rule:evenodd;fill:#000;fill-opacity:.70196078;fill-rule:evenodd;stroke:none"/></g></clipPath></defs><style id="style4" type="text/css">.st0{fill-rule:evenodd;clip-rule:evenodd;fill:#222}</style><path style="opacity:1;fill:#fff;fill-opacity:1;stroke:none;stroke-width:1;stroke-miterlimit:4;stroke-dasharray:none;stroke-opacity:1" id="rect4141" d="M -62.5 -62.5 L -62.5 562.5 L 562.5 562.5 L 562.5 -62.5 L -62.5 -62.5 z M 343.75 156.25 A 187.5 187.5 0 0 1 531.25 343.75 A 187.5 187.5 0 0 1 343.75 531.25 A 187.5 187.5 0 0 1 156.25 343.75 A 187.5 187.5 0 0 1 343.75 156.25 z" clip-path="url(#clipPath4148)"/><circle style="opacity:1;fill:#ff1744;fill-opacity:1;stroke:none;stroke-width:1;stroke-miterlimit:4;stroke-dasharray:none;stroke-opacity:1" id="path4137" cx="343.75" cy="343.75" r="156.25"/></svg>