<?xml version="1.0" encoding="UTF-8" standalone="no"?>
<svg
   xmlns:dc="http://purl.org/dc/elements/1.1/"
   xmlns:cc="http://creativecommons.org/ns#"
   xmlns:rdf="http://www.w3.org/1999/02/22-rdf-syntax-ns#"
   xmlns:svg="http://www.w3.org/2000/svg"
   xmlns="http://www.w3.org/2000/svg"
   xmlns:sodipodi="http://sodipodi.sourceforge.net/DTD/sodipodi-0.dtd"
   xmlns:inkscape="http://www.inkscape.org/namespaces/inkscape"
   version="1.1"
   x="0px"
   y="0px"
   viewBox="0 0 500 500"
   style="enable-background:new 0 0 500 500;"
   xml:space="preserve"
   id="svg2"
   inkscape:version="0.91 r13725"
   sodipodi:docname="MenuIconUnread.svg"><metadata
     id="metadata14"><rdf:RDF><cc:Work
         rdf:about=""><dc:format>image/svg+xml</dc:format><dc:type
           rdf:resource="http://purl.org/dc/dcmitype/StillImage" /></cc:Work></rdf:RDF></metadata><defs
     id="defs12"><clipPath
       clipPathUnits="userSpaceOnUse"
       id="clipPath4148"><g
         id="g4150"
         style="fill:#000000;fill-opacity:0.70196078;stroke:none"
         transform="matrix(0.99998928,0,0,0.99998928,-0.01497322,0.02529433)"><g
           id="g4152"
           style="fill:#000000;fill-opacity:0.70196078;stroke:none"><path
             id="path4154"
             class="st0"
             d="m 396.9,47.7 2.6,53.1 c 43,47.5 60,114.8 38.6,178.1 C 406.1,373.3 300.7,423 202.7,389.8 104.7,356.6 51.1,253.1 83,158.7 104.5,95.2 159.2,52 222.5,40.5 L 256.7,0.1 C 150,-2.8 49.3,63.4 13.3,169.9 -31,300.6 39.1,442.5 169.9,486.7 300.7,530.9 442.5,460.9 486.8,330.1 522.7,223.9 483.1,110.3 396.9,47.7 Z"
             style="clip-rule:evenodd;fill:#000000;fill-opacity:0.70196078;fill-rule:evenodd;stroke:none"
             inkscape:connector-curvature="0" /></g><path
           id="path4156"
           class="st0"
           d="m 335.6,204.3 -1.8,-74.2 -1.5,-42.7 -1,-37 c 0,0 0.2,-17.8 -0.4,-22 -0.1,-0.9 -0.4,-1.6 -0.7,-2.2 0,-0.1 -0.1,-0.2 -0.1,-0.3 0,-0.1 -0.1,-0.2 -0.1,-0.2 -0.7,-1.2 -1.8,-2.1 -3.1,-2.6 -1.4,-0.5 -2.9,-0.4 -4.2,0.2 0,0 -0.1,0 -0.1,0 -0.2,0.1 -0.3,0.1 -0.4,0.2 -0.6,0.3 -1.2,0.7 -1.8,1.3 -3,3 -13.7,17.2 -13.7,17.2 l -23.2,28.8 -27.1,33 -46.5,57.8 c 0,0 -21.3,26.6 -16.6,59.4 4.7,32.8 29.1,48.7 48,55.1 18.9,6.4 48,8.5 71.6,-14.7 23.5,-23 22.7,-57.1 22.7,-57.1 z"
           style="clip-rule:evenodd;fill:#000000;fill-opacity:0.70196078;fill-rule:evenodd;stroke:none"
           inkscape:connector-curvature="0" /></g></clipPath></defs><sodipodi:namedview
     pagecolor="#ffffff"
     bordercolor="#666666"
     borderopacity="1"
     objecttolerance="10"
     gridtolerance="10"
     guidetolerance="10"
     inkscape:pageopacity="0"
     inkscape:pageshadow="2"
     inkscape:window-width="1278"
     inkscape:window-height="1368"
     id="namedview10"
     showgrid="false"
     inkscape:zoom="0.472"
     inkscape:cx="-2.7751473"
     inkscape:cy="250"
     inkscape:window-x="1273"
     inkscape:window-y="0"
     inkscape:window-maximized="0"
     inkscape:current-layer="svg2" /><style
     type="text/css"
     id="style4"> .st0{fill-rule:evenodd;clip-rule:evenodd;fill:#222222;} </style><path
     style="opacity:1;fill:#000000;fill-opacity:0.7019608;stroke:none;stroke-width:1;stroke-miterlimit:4;stroke-dasharray:none;stroke-opacity:1"
     d="M -62.5 -62.5 L -62.5 562.5 L 562.5 562.5 L 562.5 -62.5 L -62.5 -62.5 z M 343.75 156.25 A 187.5 187.5 0 0 1 531.25 343.75 A 187.5 187.5 0 0 1 343.75 531.25 A 187.5 187.5 0 0 1 156.25 343.75 A 187.5 187.5 0 0 1 343.75 156.25 z "
     id="rect4141"
     clip-path="url(#clipPath4148)" /><circle
     style="opacity:1;fill:#00e5ff;fill-opacity:1;stroke:none;stroke-width:1;stroke-miterlimit:4;stroke-dasharray:none;stroke-opacity:1"
     id="path4137"
     cx="343.75"
     cy="343.75"
     r="156.25" /></svg>